<?xml version="1.0" encoding="UTF-8"?>
<svg id="Capa_2" data-name="Capa 2" xmlns="http://www.w3.org/2000/svg" xmlns:xlink="http://www.w3.org/1999/xlink" viewBox="0 0 84.53 109.38">
  <defs>
    <style>
      .cls-1 {
        fill: #fff;
      }

      .cls-2 {
        fill: url(#Degradado_sin_nombre_7);
      }

      .cls-3 {
        clip-path: url(#clippath);
      }
    </style>
    <linearGradient id="Degradado_sin_nombre_7" data-name="Degradado sin nombre 7" x1="42.26" y1="101.1" x2="42.26" y2="16.57" gradientUnits="userSpaceOnUse">
      <stop offset="0" stop-color="#005546"/>
      <stop offset="1" stop-color="#87be28"/>
    </linearGradient>
    <clipPath id="clippath">
      <path class="cls-1" d="M16.02,16.35s6.39,4.07,10.03,10.8c2.31,4.27,2.83,8.07,3.22,9.32,7.12.13,10.13,3.38,14.25,10.77.9,1.62,1.85,3.27,2.76,4.84,0,0,0,.01,0,.01,0,0-.01,0-.01,0-1.3-2-2.78-4.22-4.09-6-2.95-4.02-6.79-7.79-12.64-7.93-1.37-.03-1.78-.03-2.3-.02-.56,0-1.24,0-3.36-.03,6.35,3.52,6.84,12.27,10.86,17.95,3.69,5.22,6.94,9.54,16.31,11.36,1.32.26,4.42.74,5.88.65-1.94-1.64-3.45-3.92-5.16-6.85-.46-.85-2.62-4.94-4.44-10.7-1.79-5.65-3.56-12.6-4.43-16.26-1.79-7.49-4.77-14.33-13.62-17-2.66-.8-7.74-.93-10.78-.93-1.48,0-2.47.03-2.47.03"/>
    </clipPath>
  </defs>
  <g id="Capa_1-2" data-name="Capa 1">
    <g>
      <path class="cls-2" d="M84.53,39.86c.01-10.67-5.2-21.59-13.15-28.8-.44-.4-.9-.8-1.36-1.18C62.35,3.54,52.38,0,42.2,0,18.9,0,0,17.84,0,39.86c0,10.5,6.52,18.99,11.83,27.67l23.09,37.76c3.33,5.44,11.24,5.44,14.57,0h0c4.66-7.62,9.32-15.25,13.98-22.87,2.97-4.86,5.88-9.77,8.93-14.6,2.48-3.94,5.02-7.92,7.38-11.94,2.91-4.95,4.75-10.33,4.75-16.02Z"/>
      <g>
        <g>
          <path class="cls-1" d="M60.33,16.33l-9.87,37.91c2,5.06,3.91,9.26,6.94,12.03l10.84-41.53.09-.34c.11-.49.18-.99.18-1.5,0-3.94-3.56-6.49-8.17-6.56"/>
          <path class="cls-1" d="M23.45,39.71l-7.26,27.73h10.1l4.15-16.04c-1.87-5.32-3.77-9.4-6.99-11.7"/>
        </g>
        <g>
          <path class="cls-1" d="M16.02,16.35s6.39,4.07,10.03,10.8c2.31,4.27,2.83,8.07,3.22,9.32,7.12.13,10.13,3.38,14.25,10.77.9,1.62,1.85,3.27,2.76,4.84,0,0,0,.01,0,.01,0,0-.01,0-.01,0-1.3-2-2.78-4.22-4.09-6-2.95-4.02-6.79-7.79-12.64-7.93-1.37-.03-1.78-.03-2.3-.02-.56,0-1.24,0-3.36-.03,6.35,3.52,6.84,12.27,10.86,17.95,3.69,5.22,6.94,9.54,16.31,11.36,1.32.26,4.42.74,5.88.65-1.94-1.64-3.45-3.92-5.16-6.85-.46-.85-2.62-4.94-4.44-10.7-1.79-5.65-3.56-12.6-4.43-16.26-1.79-7.49-4.77-14.33-13.62-17-2.66-.8-7.74-.93-10.78-.93-1.48,0-2.47.03-2.47.03"/>
          <g class="cls-3">
            <rect class="cls-1" x="6.88" y="16.84" width="59.19" height="50.78" transform="translate(-12.42 69.13) rotate(-78)"/>
          </g>
        </g>
      </g>
    </g>
  </g>
</svg>