<?xml version="1.0" encoding="UTF-8"?>
<svg id="Capa_2" data-name="Capa 2" xmlns="http://www.w3.org/2000/svg" viewBox="0 0 441.15 257.22">
  <defs>
    <style>
      .cls-1 {
        fill: #fff;
      }

      .cls-2 {
        fill: #87be28;
      }
    </style>
  </defs>
  <g id="Capa_1-2" data-name="Capa 1">
    <g>
      <g>
        <path class="cls-1" d="M10.21,245.16c0,3.94.33,5.19,3.77,5.19h1.76c3.43,0,3.77-1.25,3.77-5.19v-12.31h6.95v13.48c0,8.46-2.01,10.88-9.8,10.88h-4.02c-7.7,0-9.8-2.43-9.8-10.88v-37.68c0-8.46,2.1-10.88,9.8-10.88h4.02c7.79,0,9.8,2.43,9.8,10.88v10.97h-6.95v-9.8c0-3.93-.34-5.19-3.77-5.19h-1.76c-3.43,0-3.77,1.26-3.77,5.19v35.33Z"/>
        <path class="cls-1" d="M56.34,246.5c0,3.77.34,7.37,1.26,10.3h-7.7c-.84-1.92-.92-5.44-.92-9.13v-11.22c0-4.02-.67-5.86-4.35-5.86h-4.94v26.21h-7.37v-58.61h14.23c7.79,0,9.8,2.43,9.8,10.88v7.96c0,6.11-1.09,9.04-4.69,10.13,3.6,1.17,4.69,4.1,4.69,10.3v9.04ZM48.98,210.25c0-3.94-.25-5.19-3.77-5.19h-5.53v18.67h5.53c3.43,0,3.77-1.25,3.77-5.19v-8.29Z"/>
        <path class="cls-1" d="M69.91,222.73h9.13v6.87h-9.13v20.34h10.97v6.87h-18.34v-58.61h18.34v6.87h-10.97v17.67Z"/>
        <path class="cls-1" d="M92.85,245.16c0,3.94.33,5.19,3.77,5.19h1.76c3.43,0,3.77-1.25,3.77-5.19v-12.31h6.95v13.48c0,8.46-2.01,10.88-9.8,10.88h-4.02c-7.7,0-9.8-2.43-9.8-10.88v-37.68c0-8.46,2.1-10.88,9.8-10.88h4.02c7.79,0,9.8,2.43,9.8,10.88v10.97h-6.95v-9.8c0-3.93-.34-5.19-3.77-5.19h-1.76c-3.43,0-3.77,1.26-3.77,5.19v35.33Z"/>
        <path class="cls-1" d="M115.13,198.2h7.37v58.61h-7.37v-58.61Z"/>
        <path class="cls-1" d="M136.56,222.73h9.13v6.87h-9.13v20.34h10.97v6.87h-18.34v-58.61h18.34v6.87h-10.97v17.67Z"/>
        <path class="cls-1" d="M160.59,222.89c-.84-3.68-1.34-7.11-1.84-10.55.08,3.43.16,6.87.16,10.72v33.74h-6.36v-58.61h9.29l6.95,31.31c.83,3.68,1.42,7.11,1.92,10.55-.08-3.43-.34-6.87-.34-10.63v-31.23h6.45v58.61h-8.37l-7.87-33.91Z"/>
        <path class="cls-1" d="M183.37,198.2h14.15c7.79,0,9.88,2.43,9.88,10.88v36.84c0,8.46-2.09,10.88-9.88,10.88h-14.15v-58.61ZM196.26,249.94c3.43,0,3.77-1.25,3.77-5.19v-34.49c0-3.94-.34-5.19-3.77-5.19h-5.53v44.87h5.53Z"/>
        <path class="cls-1" d="M213.09,208.66c0-8.46,2.1-10.88,9.8-10.88h4.44c7.7,0,9.8,2.43,9.8,10.88v37.68c0,8.46-2.09,10.88-9.8,10.88h-4.44c-7.7,0-9.8-2.43-9.8-10.88v-37.68ZM229.75,209.83c0-3.93-.34-5.19-3.77-5.19h-1.76c-3.43,0-3.77,1.26-3.77,5.19v35.33c0,3.94.33,5.19,3.77,5.19h1.76c3.43,0,3.77-1.25,3.77-5.19v-35.33Z"/>
        <path class="cls-1" d="M261.73,245.16c0,3.94.33,5.19,3.77,5.19h1.76c3.43,0,3.77-1.25,3.77-5.19v-12.31h6.95v13.48c0,8.46-2.01,10.88-9.8,10.88h-4.02c-7.7,0-9.8-2.43-9.8-10.88v-37.68c0-8.46,2.1-10.88,9.8-10.88h4.02c7.79,0,9.8,2.43,9.8,10.88v10.97h-6.95v-9.8c0-3.93-.34-5.19-3.77-5.19h-1.76c-3.43,0-3.77,1.26-3.77,5.19v35.33Z"/>
        <path class="cls-1" d="M283.5,208.66c0-8.46,2.1-10.88,9.8-10.88h4.44c7.7,0,9.8,2.43,9.8,10.88v37.68c0,8.46-2.09,10.88-9.8,10.88h-4.44c-7.7,0-9.8-2.43-9.8-10.88v-37.68ZM300.17,209.83c0-3.93-.34-5.19-3.77-5.19h-1.76c-3.43,0-3.77,1.26-3.77,5.19v35.33c0,3.94.33,5.19,3.77,5.19h1.76c3.43,0,3.77-1.25,3.77-5.19v-35.33Z"/>
        <path class="cls-1" d="M321.68,222.89c-.84-3.68-1.34-7.11-1.84-10.55.08,3.43.16,6.87.16,10.72v33.74h-6.36v-58.61h9.29l6.95,31.31c.83,3.68,1.42,7.11,1.92,10.55-.08-3.43-.34-6.87-.34-10.63v-31.23h6.45v58.61h-8.37l-7.87-33.91Z"/>
        <path class="cls-1" d="M364.55,223.9c1.09,8.12,1.84,17,2.34,22.86.5-5.94,1.34-14.74,2.43-22.86l3.35-25.7h6.61l-7.87,58.61h-9.8l-7.95-58.61h7.45l3.43,25.7Z"/>
        <path class="cls-1" d="M383.06,208.66c0-8.46,2.1-10.88,9.8-10.88h4.44c7.7,0,9.8,2.43,9.8,10.88v37.68c0,8.46-2.09,10.88-9.8,10.88h-4.44c-7.7,0-9.8-2.43-9.8-10.88v-37.68ZM399.72,209.83c0-3.93-.34-5.19-3.77-5.19h-1.76c-3.43,0-3.77,1.26-3.77,5.19v35.33c0,3.94.33,5.19,3.77,5.19h1.76c3.43,0,3.77-1.25,3.77-5.19v-35.33Z"/>
        <path class="cls-1" d="M427.93,241.06c0-5.28-1.25-6.87-7.11-12.14-6.78-6.11-8.54-8.71-8.54-16.41v-3.85c0-8.46,2.01-10.88,9.8-10.88h3.43c7.78,0,9.8,2.43,9.8,10.88v9.13h-6.95v-7.96c0-3.93-.25-5.19-3.77-5.19h-1.25c-3.43,0-3.77,1.26-3.77,5.03v2.76c0,5.27,1.26,6.95,7.12,12.22,6.78,6.11,8.62,8.62,8.62,16.33v5.36c0,8.46-2.09,10.88-9.8,10.88h-3.52c-7.7,0-9.71-2.43-9.71-10.88v-10.8h6.87v9.63c0,3.94.25,5.19,3.77,5.19h1.25c3.43,0,3.77-1.25,3.77-5.19v-4.1Z"/>
      </g>
      <g>
        <path class="cls-2" d="M63.09,40.98c0,5.39-4.31,4.85-7.28,8.63-1.08,1.35-5.39,2.43-9.7,2.43-3.51,0-7.01-.81-8.36-2.43-2.7-2.43-6.47-9.44-6.47-11.32,0-10.52,9.44-14.56,17.26-22.11,1.89-1.89,7.55-2.43,10.25-3.77,5.66-3.51,19.95-12.41,33.97-12.41,4.85,0,9.98.54,14.02,3.78,1.08.54,1.89,1.08,3.5,1.35,5.93,1.89,8.9,6.2,9.97,8.36,1.35,2.16,1.62,4.58,1.62,5.93,0,3.5-1.08,6.2-2.69,9.44-1.08,2.69-1.35,4.58-2.69,6.47-9.44,16.72-19.95,29.93-27.5,37.75,23.73,4.85,25.34,23.73,25.34,32.09,0,10.25-4.58,23.19-9.71,33.97-9.43,19.68-22.65,40.45-49.88,40.45-22.38,0-42.6-22.38-50.69-31.82-2.16-2.43-4.04-6.2-4.04-9.44,0-4.04,1.89-6.2,8.63-6.2s7.82-.81,11.06-.81,5.93,1.08,7.82,3.23c3.5,4.31,9.17,7.55,9.17,11.87,0,2.69,8.63,10.78,15.37,10.78,1.62,0,2.16,0,4.58-1.35,10.24-6.74,16.18-14.83,22.65-29.12,3.24-7.55,7.01-19.14,7.01-21.84,0-4.58-1.35-7.55-2.96-9.98-1.08-1.89-2.69-2.16-4.58-2.16s-3.77.81-5.66,1.62c-2.43,1.08-5.12,1.08-7.81,2.43-4.86,2.69-14.29,9.44-24.54,9.44-2.16,0-4.85-.27-7.28-1.08-4.31-1.35-7.55-7.55-7.55-11.59,0-1.62.54-2.7,1.35-3.5,3.23-2.97,7.01-5.12,11.32-7.55,4.32-2.69,5.66-4.85,6.74-5.66,24.8-16.45,36.13-37.75,42.33-49.88.54-1.35,1.08-2.43,1.08-3.23,0-.54-.54-.81-.81-.81s-1.08,0-2.69.81c-9.44,4.85-22.11,13.48-22.11,17.26Z"/>
        <path class="cls-2" d="M199.57,14.29c4.04,0,8.9,1.89,12.67,3.77,4.58,2.43,9.98,5.66,11.87,9.17,4.58,9.17,6.47,19.14,6.47,29.12,0,18.88-5.39,35.32-12.67,52.31-1.89,4.58-2.96,14.02-22.11,43.41-10.52,16.45-27.24,26.96-40.72,26.96-9.98,0-32.09-11.32-39.37-26.15-.81-1.35-4.04-11.59-4.04-22.11,0-12.67,4.31-33.7,14.56-56.35,10.24-22.38,25.61-41.52,42.6-61.48,2.43-2.69,6.47-2.96,11.32-2.96,2.69,0,5.66.27,8.09,1.35,2.69,1.08,5.93,4.31,7.01,4.31,1.35,0,1.62-1.35,4.31-1.35ZM175.31,127c1.89-3.5,5.39-7.55,7.28-12.13,3.77-9.98,19.68-41.52,19.68-63.9,0-7.82-2.43-15.1-8.09-18.88-.81-.27-1.35-.81-2.16-.81-1.08,0-1.89.81-2.96,2.43-17.8,19.95-34.51,46.1-43.41,70.64-3.23,8.09-2.69,10.79-3.5,13.48-1.62,6.47-2.97,13.48-2.97,26.15,0,.54.81,6.74,1.35,8.09,1.35,1.89,2.43,5.39,4.31,5.39,5.66,0,18.34-8.63,30.47-30.47Z"/>
      </g>
      <g>
        <path class="cls-1" d="M334.69,72.94l2.18-5.87c1.59-3.09,1.72-5.57,1.72-6.27,0-1.41-.63-2.91-2.05-4.88-.73-1.09-2.39-3.49-5.85-3.52-.15-.03-.49-.13-.74-.21-1.01-.31-2.53-.78-4.57-.78-.91,0-1.7.05-2.4.18.55-.28,1.15-.61,1.82-1,2.61-1.54,3.96-2.56,5.16-3.46.31-.23.61-.46.9-.67.86-.61,2.63-1.88,2.63-4.33,0-.47,0-1.26-.15-3.41-.3-3.63-2.93-5.98-6.69-5.98-2.15,0-2.84.24-7.54,2.09h-.02c-.35.15-.67.27-.95.38-.35-.83-.72-1.77-.9-2.23-2.11-5.13-5.37-7.74-9.68-7.74-1.16,0-3.58,0-7.54,1.72l-7.32,3.24c-2.01.85-3.16,3.03-3.16,5.99,0,1.28.14,2.11.26,2.78.1.56.17.97.17,1.74,0,4.85,5.26,5.57,8.4,5.57,2.19,0,3.19-.21,5.31-1.63,2.87,7.8,8.18,8.7,11.94,8.7,2.02,0,3.34-.08,5.1-.73-1,.86-1.75,2.29-2.46,4.62-.82,2.78-1.24,5.68-1.64,8.49-.34,2.4-.67,4.67-1.22,6.75-.34,1.3-.64,2.15-1.06,3.32-.37,1.04-.83,2.34-1.44,4.3-.67,2.14-1.34,4.31-2.02,6.52-3.28,10.57-6.64,21.42-10.18,31.36-.43-7-.6-14.15-.77-21.14-.37-15.43-.75-31.39-3.86-46.13-.95-4.39-3.73-4.95-6.06-4.95-5.38,0-8.35,1.11-9.9,2.06-2.74,1.59-2.74,3.55-2.74,5.63,0,2.35.37,3.83.66,5.02.03.13.06.26.09.38-.81.61-1.63,1.59-2.04,3.15l-5.79,21.59-2.25,7.61c-.17.57-.72,2.36-1.53,4.97-1.03,3.33-2,6.46-2.91,9.42-.07-.11-.13-.22-.19-.33-2.6-4.47-8.94-4.47-11.02-4.47-.45,0-.89,0-1.29.02.78-6.96,2.71-22.67,4.38-30.62.22-1.01.31-2,.4-3.05.13-1.4.26-2.85.72-4.67.02-.09,2.07-9.11,2.07-11.13,0-1.05-.37-1.91-.64-2.54-.05-.12-.11-.24-.15-.35l-.02-.09c-1-4.03-7.55-4.14-8.29-4.14-2.6,0-4.41.33-6.27,1.16-.86.38-1.77.54-2.08.54-2.61,0-3.57,1.58-5.9,5.4-12.95,21.24-23.6,40.37-34.34,61.72-.79-.22-1.74-.36-2.91-.36-2.73,0-4.6.91-5.56,2.72-1.04,1.86-2.56,7.03-2.56,9.36,0,3.07,1.56,4.69,3.63,6.25-.73,2.81-2.07,8.2-2.07,14.69,0,4.21.99,6.56,3.78,8.93,2.4,2.13,4.9,2.29,5.61,2.29,3.88,0,6.1-2.25,7.29-3.45.21-.21.46-.47.53-.52.69-.52,2.14-1.61,2.14-3.86,0-.32-.02-.62-.06-.99-.04-.37-.08-.8-.08-1.7,0-5.6.72-9.66,2.41-13.61,0-.02.02-.04.03-.06,3.66-.81,10.53-3.27,16.28-5.57-.04.41-.09.85-.14,1.34-1.16,11.23-1.43,14.89-1.43,19.61,0,6.73.54,10.12,1.91,12.08,1.94,2.81,5.22,4.24,9.74,4.24,1.56,0,3.33,0,4.96-1.64,2.22-2.22,3.44-3.44,3.44-6.05,0-.66-.15-1.2-.31-1.77-.31-1.12-.97-3.46-.97-8.7,0-1.39,0-2.3.13-4.69.14-1.85.24-3.77.33-5.37.08-1.37.16-2.93.22-3.38l1.56-13.06c.07-.69.13-1.18.18-1.47l.03-.02c.25-.14,1.01-.46,2.06-.53,3.52-.18,6.89-.54,9.47-2.34-5.81,19.22-8.28,28.58-8.28,31.14,0,1.6.55,3.78,3.14,5.2l.02.02c1.64,1.66,3.43,2.19,7.36,2.19,7.09,0,9.05-3.75,9.1-6.04.02-.23.13-1.14.67-4.65,1.47-9.63,4.44-21.6,9.22-37.16.48,12.01,1.24,24.68,2.79,34.24.61,3.65,1.92,7.81,7.04,10.95,3.15,1.92,5.09,2.08,6.96,2.08,3.78,0,5.31-.71,8.62-4.02,1.97-1.97,2.36-2.85,3.43-5.6l.06-.17c7.1-18.32,12.1-34.11,16.52-48.04,2.54-8.02,4.94-15.6,7.41-22.58ZM234.05,89.3c-.7,4.59-1.63,10.5-2.88,18.09l-6.7,3.05h-.03c-.6.29-1.22.56-1.85.82,3.87-7.58,7.47-14.49,11.45-21.95Z"/>
        <path class="cls-1" d="M440.69,73.43c-.08-.56-.16-1.13-.24-1.71-.49-3.71-1.05-7.92-3.46-11.52-5.77-8.47-13.33-9.63-20.65-9.63s-9.31,4.76-10.25,6.88c-.82,1.97-2.82,9.24-2.82,13.83,0,3.4,0,4.67.44,10.04.61,7.73,1.72,14.72,2.79,21.48.96,6.06,1.86,11.78,2.45,18.01.28,3.26.41,5.54.41,10.44,0,1.22-.1,2.51-.22,4l-.05.6c-.06.57-.23,1.07-.41,1.46-.21-.11-.46-.25-.76-.42-4.72-2.66-9.69-8.42-11.56-13.4-.2-.52-.2-.75-.2-1.01,0-.94.12-1.22.35-1.78.31-.75.78-1.89.78-3.73,0-3.33-4.49-7.54-4.72-7.76-2.11-1.9-5.29-2.9-9.19-2.9-.28,0-.57,0-.86.01.93-3.16,1.76-6.19,2.48-8.95,1.47-5.58,1.96-8.41,1.96-14.21,0-6.93-.81-15.9-7.15-23.74-2.1-2.63-4.09-2.76-6.18-2.76-.28-.13-.78-.41-1.16-.62-1.76-.99-4.17-2.35-7.2-2.35-2.78,0-4.13.94-6,2.24l-.14.1c-6.11,4.23-10.24,9.8-15.71,18.59-11.53,18.55-17.37,37.36-17.37,55.92,0,5.52,1.45,9.42,3.03,12.86,1.43,3.02,4.35,7.04,7.81,8.43,2.83,1.17,4.82,1.69,9.15,1.69,8.66,0,15.5-3.46,20.33-10.29,4.07-5.75,7.45-12.62,10.26-19.64,1.22,5.04,3.52,8.12,4.7,9.69.15.2.28.36.33.43,7.37,13.23,18.03,20.51,30.01,20.51,3.88,0,5.66,0,7.2-.77,3.7-1.76,9.97-7.34,9.97-17.1,0-1.86,0-3.79-.29-8.39-.43-8.34-2.43-20.91-4.05-31.01-.55-3.47-1.03-6.47-1.36-8.77-.37-2.57-.53-7.45-.53-10.1,0-.83.02-1.61.04-2.33.11.29.24.58.4.87,3.18,6.16,7.64,7.46,10.82,7.46,3.5,0,7.27-1.65,7.27-5.28,0-1.11-.03-2.03-.47-5.33ZM367.78,79.47c0,5.66-1.11,12.38-3.41,20.54-3.53,12.76-7.14,21.51-13.82,33.45-.75,1.35-2.93,2.78-3.9,3.07-.04-.06-.11-.16-.19-.33-1.21-2.54-1.77-5.56-1.77-9.49,0-2.37.52-5.45.93-7.92.19-1.16.36-2.16.46-3.02.25-2.37,1.05-5.17,1.85-7.84,2.75-9.24,7.51-18.85,13.78-27.81,1.81-2.56,3.45-4.6,4.63-5.95,1.16,1.23,1.43,3.49,1.43,5.31Z"/>
      </g>
    </g>
  </g>
</svg>