<?xml version="1.0" encoding="UTF-8"?>
<svg id="Capa_2" data-name="Capa 2" xmlns="http://www.w3.org/2000/svg" viewBox="0 0 256.16 128.08">
  <defs>
    <style>
      .cls-1 {
        fill: #bd84a4;
      }

      .cls-2 {
        fill: #2c1947;
      }
    </style>
  </defs>
  <g id="Capa_1-2" data-name="Capa 1">
    <g>
      <path class="cls-2" d="M128.08,128.08c70.74,0,128.08-57.34,128.08-128.08H0c0,70.74,57.34,128.08,128.08,128.08Z"/>
      <g>
        <path class="cls-1" d="M154.8,103.39c-.34,0-.68-.08-1-.22-8.07-3.81-16.64-5.74-25.5-5.74-15.13,0-25.72,5.63-25.83,5.69-.34.19-.73.28-1.11.28-.86,0-1.65-.47-2.06-1.22-.61-1.13-.19-2.55.94-3.17.43-.24,10.64-5.71,25.36-6.29l.08-3.2c-4.18-1.55-15.3-7.06-14.58-21.35l.11-2.18,2.21-.04c.51,0,12.16.18,15.81,14.98,2.42-4,6.83-8.36,14.76-9.58l2.15-.33.48,2.12c.03.14,2.72,13.35-14.2,19.67,8.04.54,15.89,2.6,23.37,6.13,1.16.55,1.66,1.95,1.11,3.11-.38.81-1.21,1.34-2.12,1.34ZM142.11,76.53c-7.28,2.14-10.01,7.84-11.04,11.8,8.86-3.41,10.73-8.83,11.04-11.8ZM115.81,71.02c.62,7.58,5.66,11.41,9.34,13.22-1.55-9.45-6.49-12.34-9.34-13.22Z"/>
        <path class="cls-1" d="M155.5,99.57c-9.29-4.39-18.15-6.02-25.94-6.19v-.36c19.31-5.7,16.41-19.59,16.38-19.73l-.34-1.49-1.51.23c-8.5,1.31-12.89,6.27-15.16,10.87-2.98-16.05-15.01-16.27-15.52-16.27,0,0-.01,0-.02,0l-1.53.03-.08,1.52c-.72,14.38,10.9,19.56,14.59,20.83l-.11,4.37c-14.8.43-25.04,5.86-25.71,6.22-.79.43-1.09,1.42-.66,2.22s1.42,1.09,2.22.66c.24-.13,24.48-12.94,51.96.04.23.11.46.16.7.16.61,0,1.2-.35,1.48-.94.39-.82.04-1.79-.78-2.18ZM142.86,75.61c-.04,3.1-1.48,9.98-12.76,13.82.77-3.94,3.45-11.59,12.76-13.82ZM115.05,70.11c3.05.64,9.48,3.39,10.97,15.3-3.7-1.55-10.67-5.72-10.97-15.3Z"/>
        <path class="cls-1" d="M128.55,37.22c-1.54,0-2.9-.59-3.94-1.71-1.51-1.64-2.02-4.13-2.16-6.15h-18.73c-1.29,0-2.34-1.05-2.34-2.34s1.05-2.34,2.34-2.34h49.67c1.29,0,2.34,1.05,2.34,2.34s-1.05,2.34-2.34,2.34h-18.85c-.1,2.01-.57,4.49-2.05,6.13-1.02,1.13-2.38,1.73-3.93,1.73ZM127.14,29.36c.13,1.39.46,2.5.91,2.98.13.14.24.21.5.21s.35-.06.47-.19c.43-.47.73-1.59.83-3h-2.71Z"/>
        <path class="cls-1" d="M153.38,25.39h-49.67c-.9,0-1.64.73-1.64,1.64s.73,1.64,1.64,1.64h19.4c.06,1.84.43,4.66,2.01,6.37.9.97,2.08,1.49,3.42,1.49s2.53-.52,3.41-1.5c1.55-1.71,1.87-4.51,1.89-6.36h19.53c.9,0,1.64-.73,1.64-1.64s-.73-1.64-1.64-1.64ZM129.54,32.83c-.26.29-.56.42-.99.42s-.74-.13-1.02-.43c-.77-.83-1.08-2.63-1.14-4.15h4.19c-.03,1.47-.28,3.32-1.05,4.17Z"/>
        <path class="cls-1" d="M136.46,49.07c-2.39,0-4.35-1.92-4.39-4.31-.47-2.19,3.05-5.76,3.77-6.46l.42-.41.48.35c.13.1,3.21,2.38,3.95,5.25.04.14.08.3.1.46.04.28.06.5.06.72,0,2.42-1.97,4.39-4.39,4.39Z"/>
        <path class="cls-1" d="M140.11,44.13s0-.04,0-.06c-.02-.14-.05-.27-.09-.4-.68-2.66-3.68-4.86-3.68-4.86,0,0-4.09,3.97-3.56,5.87,0,2.04,1.65,3.69,3.69,3.69s3.69-1.65,3.69-3.69c0-.19-.02-.37-.04-.55Z"/>
        <path class="cls-1" d="M120.66,49.07c-2.39,0-4.35-1.92-4.39-4.31-.47-2.19,3.05-5.76,3.77-6.46l.42-.41.48.35c.13.1,3.21,2.38,3.95,5.25.04.14.08.3.1.46.04.28.06.5.06.72,0,2.42-1.97,4.39-4.39,4.39Z"/>
        <path class="cls-1" d="M124.31,44.13s0-.04,0-.06c-.02-.14-.05-.27-.09-.4-.68-2.66-3.68-4.86-3.68-4.86,0,0-4.09,3.97-3.56,5.87,0,2.04,1.65,3.69,3.69,3.69s3.69-1.65,3.69-3.69c0-.19-.02-.37-.04-.55Z"/>
        <path class="cls-1" d="M112.84,62.59c-2.39,0-4.35-1.92-4.39-4.31-.47-2.2,3.05-5.76,3.77-6.46l.42-.41.48.35c.13.1,3.21,2.38,3.95,5.25.04.14.08.3.1.46.04.28.06.5.06.72,0,2.42-1.97,4.39-4.39,4.39Z"/>
        <path class="cls-1" d="M116.49,57.65s0-.04,0-.06c-.02-.14-.05-.27-.09-.4-.68-2.66-3.68-4.86-3.68-4.86,0,0-4.09,3.97-3.56,5.87,0,2.04,1.65,3.69,3.69,3.69s3.69-1.65,3.69-3.69c0-.19-.02-.37-.04-.55Z"/>
        <path class="cls-1" d="M128.57,62.59c-2.39,0-4.35-1.92-4.39-4.31-.47-2.2,3.05-5.76,3.77-6.46l.42-.41.48.35c.13.1,3.21,2.38,3.95,5.25.04.14.08.3.1.46.04.28.06.5.06.72,0,2.42-1.97,4.39-4.39,4.39Z"/>
        <path class="cls-1" d="M132.22,57.65s0-.04,0-.06c-.02-.14-.05-.27-.09-.4-.68-2.66-3.68-4.86-3.68-4.86,0,0-4.09,3.97-3.56,5.87,0,2.04,1.65,3.69,3.69,3.69s3.69-1.65,3.69-3.69c0-.19-.02-.37-.04-.55Z"/>
        <path class="cls-1" d="M144.4,62.59c-2.39,0-4.35-1.92-4.39-4.31-.47-2.2,3.05-5.76,3.77-6.46l.42-.41.48.35c.13.1,3.21,2.38,3.95,5.25.04.14.08.3.1.46.04.28.06.5.06.72,0,2.42-1.97,4.39-4.39,4.39Z"/>
        <path class="cls-1" d="M148.04,57.65s0-.04,0-.06c-.02-.14-.05-.27-.09-.4-.68-2.66-3.68-4.86-3.68-4.86,0,0-4.09,3.97-3.56,5.87,0,2.04,1.65,3.69,3.69,3.69s3.69-1.65,3.69-3.69c0-.19-.02-.37-.04-.55Z"/>
      </g>
    </g>
  </g>
</svg>