<?xml version="1.0" encoding="UTF-8"?>
<svg id="Capa_2" data-name="Capa 2" xmlns="http://www.w3.org/2000/svg" viewBox="0 0 256.16 128.08">
  <defs>
    <style>
      .cls-1 {
        fill: #bd84a4;
      }

      .cls-2 {
        fill: #2c1947;
      }
    </style>
  </defs>
  <g id="Capa_1-2" data-name="Capa 1">
    <g>
      <path class="cls-2" d="M128.08,128.08c70.74,0,128.08-57.34,128.08-128.08H0c0,70.74,57.34,128.08,128.08,128.08Z"/>
      <g>
        <circle class="cls-1" cx="134.39" cy="32.44" r="1.87"/>
        <circle class="cls-1" cx="142.65" cy="32.44" r="1.87"/>
        <circle class="cls-1" cx="150.92" cy="32.44" r="1.87"/>
        <circle class="cls-1" cx="159.18" cy="32.44" r="1.87"/>
        <circle class="cls-1" cx="134.39" cy="40.88" r="1.87"/>
        <circle class="cls-1" cx="142.65" cy="40.88" r="1.87"/>
        <circle class="cls-1" cx="150.92" cy="40.88" r="1.87"/>
        <circle class="cls-1" cx="159.18" cy="40.88" r="1.87"/>
        <circle class="cls-1" cx="134.39" cy="49.32" r="1.87"/>
        <circle class="cls-1" cx="142.65" cy="49.32" r="1.87"/>
        <circle class="cls-1" cx="150.92" cy="49.32" r="1.87"/>
        <circle class="cls-1" cx="159.18" cy="49.32" r="1.87"/>
        <circle class="cls-1" cx="134.39" cy="57.77" r="1.87"/>
        <circle class="cls-1" cx="142.65" cy="57.77" r="1.87"/>
        <circle class="cls-1" cx="150.92" cy="57.77" r="1.87"/>
        <circle class="cls-1" cx="159.18" cy="57.77" r="1.87"/>
        <g>
          <path class="cls-1" d="M88.73,24.69v78.7h78.7V24.69h-78.7ZM163.69,62.17h-33.74V28.43h33.74v33.74ZM126.21,40h-33.74v-3.89h33.74v3.89ZM126.21,43.74v3.75h-33.74v-3.75h33.74ZM126.21,51.23v3.29h-33.74v-3.29h33.74ZM126.21,58.27v3.9h-33.74v-3.9h33.74ZM126.21,73.63c-1.73-3.24-4.37-5.92-7.57-7.72h7.57v7.72ZM99.9,65.91c-3.12,1.75-5.7,4.34-7.43,7.47v-7.47h7.43ZM92.47,81.02c.76-7.87,6.93-14.16,14.74-15.11h4.12c8.35,1.02,14.82,8.13,14.82,16.75,0,9.32-7.56,16.88-16.88,16.88-8.77,0-15.98-6.69-16.8-15.24v-3.28ZM126.21,91.69v7.95h-8c3.39-1.79,6.19-4.57,8-7.95ZM129.95,88.68h33.74v3.29h-33.74v-3.29ZM129.95,84.94v-3.75h33.74v3.75h-33.74ZM129.95,77.45v-3.89h33.74v3.89h-33.74ZM129.95,69.81v-3.9h33.74v3.9h-33.74ZM126.21,28.43v3.93h-33.74v-3.93h33.74ZM92.47,91.94c1.81,3.27,4.55,5.96,7.86,7.7h-7.86v-7.7ZM129.95,99.65v-3.93h33.74v3.93h-33.74Z"/>
          <path class="cls-1" d="M109.27,89.9c3.99,0,7.23-3.25,7.23-7.23s-3.25-7.23-7.23-7.23-7.23,3.25-7.23,7.23,3.25,7.23,7.23,7.23ZM109.27,77.75c2.72,0,4.92,2.2,4.92,4.92s-2.2,4.92-4.92,4.92-4.92-2.2-4.92-4.92,2.2-4.92,4.92-4.92Z"/>
          <path class="cls-1" d="M109.27,93.7c6.09,0,11.04-4.95,11.04-11.04s-4.95-11.04-11.04-11.04-11.04,4.95-11.04,11.04,4.95,11.04,11.04,11.04ZM109.27,73.94c4.82,0,8.72,3.9,8.72,8.72s-3.9,8.72-8.72,8.72-8.72-3.9-8.72-8.72,3.9-8.72,8.72-8.72Z"/>
          <path class="cls-1" d="M109.27,97.97c8.44,0,15.3-6.87,15.3-15.3s-6.87-15.3-15.3-15.3-15.3,6.87-15.3,15.3,6.87,15.3,15.3,15.3ZM109.27,69.68c7.17,0,12.99,5.81,12.99,12.99s-5.81,12.99-12.99,12.99-12.99-5.81-12.99-12.99,5.81-12.99,12.99-12.99Z"/>
        </g>
      </g>
    </g>
  </g>
</svg>