<?xml version="1.0" encoding="UTF-8"?>
<svg id="Capa_2" data-name="Capa 2" xmlns="http://www.w3.org/2000/svg" xmlns:xlink="http://www.w3.org/1999/xlink" viewBox="0 0 113.7 202.83">
  <defs>
    <style>
      .cls-1 {
        fill: #005671;
      }

      .cls-2 {
        fill: none;
      }

      .cls-3 {
        fill: #0095c8;
      }

      .cls-4 {
        clip-path: url(#clippath);
      }
    </style>
    <clipPath id="clippath">
      <rect class="cls-2" x="29.06" y="70.73" width="56.05" height="59.53"/>
    </clipPath>
  </defs>
  <g id="Capa_1-2" data-name="Capa 1">
    <g>
      <path class="cls-1" d="M113.7,101.42C113.7,45.41,62.8,0,0,0v202.83c62.8,0,113.7-45.41,113.7-101.42Z"/>
      <g class="cls-4">
        <g id="Group_14" data-name="Group 14">
          <g>
            <path id="Path_28" data-name="Path 28" class="cls-3" d="M43.16,80.69c-2.29,0-4.14,1.86-4.14,4.14s1.86,4.14,4.14,4.14,4.14-1.86,4.14-4.14-1.86-4.14-4.14-4.14h0"/>
            <path id="Path_29" data-name="Path 29" class="cls-3" d="M71.01,108.53c-2.29,0-4.14,1.86-4.14,4.14,0,2.29,1.86,4.14,4.14,4.14,2.29,0,4.14-1.86,4.14-4.14s-1.86-4.14-4.14-4.14"/>
            <path id="Path_30" data-name="Path 30" class="cls-3" d="M71.01,98.57c-3.02,0-5.96.98-8.39,2.79l-8.15-8.15c4.66-6.28,3.35-15.14-2.93-19.8-6.28-4.66-15.14-3.35-19.8,2.93-4.66,6.28-3.35,15.14,2.93,19.8,4.58,3.4,10.75,3.72,15.66.81l8.56,8.56c-1.29,2.17-1.98,4.64-1.98,7.17,0,.56.04,1.12.11,1.68l-10.91,2.96c-2.63-3.66-7.74-4.5-11.4-1.86-3.66,2.63-4.5,7.74-1.86,11.4,2.63,3.66,7.74,4.5,11.4,1.86,1.97-1.41,3.2-3.63,3.38-6.04l11.15-3.02c3.86,6.76,12.47,9.11,19.23,5.26,6.76-3.86,9.11-12.47,5.26-19.23-2.51-4.4-7.18-7.11-12.24-7.11M34.63,84.83c0-4.71,3.82-8.53,8.53-8.53,4.71,0,8.53,3.82,8.53,8.53,0,4.71-3.82,8.53-8.53,8.53-4.71,0-8.53-3.82-8.53-8.53M71.01,121.21c-4.71,0-8.53-3.82-8.53-8.53s3.82-8.53,8.53-8.53,8.53,3.82,8.53,8.53c0,4.71-3.82,8.53-8.53,8.53"/>
          </g>
        </g>
      </g>
    </g>
  </g>
</svg>