<?xml version="1.0" encoding="UTF-8"?>
<svg id="Capa_2" data-name="Capa 2" xmlns="http://www.w3.org/2000/svg" viewBox="0 0 113.7 202.83">
  <defs>
    <style>
      .cls-1 {
        fill: #bd84a4;
      }

      .cls-2 {
        fill: #2c1947;
      }
    </style>
  </defs>
  <g id="Capa_1-2" data-name="Capa 1">
    <g>
      <path class="cls-2" d="M113.7,101.42C113.7,45.41,62.8,0,0,0v202.83c62.8,0,113.7-45.41,113.7-101.42Z"/>
      <g>
        <path class="cls-1" d="M50.79,141.39h-.03s-.07,0-.07,0c-.67,0-1.29-.34-1.65-.91-2.11-1.76-8.5-7.86-9.69-18.29-2.92-.15-4.56-1.33-5.89-2.29-1.2-.87-2.15-1.56-4.19-1.56s-2.98.69-4.18,1.56c-1.42,1.03-3.19,2.3-6.5,2.3-1.09,0-1.98-.89-1.98-1.98s.89-1.98,1.98-1.98c2.03,0,2.98-.69,4.19-1.56,1.42-1.03,3.19-2.31,6.5-2.31s5.08,1.28,6.5,2.31c1.03.75,1.88,1.36,3.39,1.51v-23.13c0-.71.38-1.37,1-1.72.3-.17.63-.26.97-.26s.71.1,1.01.28l3.32,1.99v-31.3h10.44v31.2l3.04-1.87c.31-.19.67-.29,1.03-.29.34,0,.67.09.96.25.62.35,1.01,1.01,1.01,1.72v23.15c1.63-.13,2.49-.76,3.55-1.53,1.42-1.03,3.19-2.31,6.5-2.31s5.08,1.28,6.5,2.31c1.2.87,2.15,1.56,4.18,1.56,1.09,0,1.98.89,1.98,1.98s-.89,1.98-1.98,1.98c-3.31,0-5.08-1.28-6.5-2.3-1.21-.87-2.15-1.56-4.19-1.56s-2.98.69-4.18,1.56c-1.34.97-3,2.17-5.96,2.29-.43,4.65-2.31,12.7-9.75,18.75-.35.29-.79.44-1.25.44h-.08ZM52.66,134.86c3.87-4.68,4.97-10.02,5.26-13.2-1.33-.47-2.3-1.17-3.1-1.75-.7-.51-1.33-.96-2.16-1.25v16.2ZM43.27,121.69c.67,5.88,3.33,10.22,5.45,12.82v-15.87c-.88.28-1.53.75-2.26,1.28-.81.59-1.81,1.31-3.19,1.78ZM43.11,117.41c.36-.22.7-.46,1.03-.7,1.1-.79,2.44-1.76,4.57-2.14v-12.65l-5.6-3.35v18.84ZM52.66,114.59c2.08.39,3.4,1.34,4.48,2.12.29.21.58.42.87.6v-18.69l-5.34,3.29v12.68ZM50.68,98.49l1.28-.79v-29.68h-2.54v29.72l1.25.75Z"/>
        <path class="cls-1" d="M82.69,118.95c-2.25,0-3.33-.78-4.59-1.69-1.41-1.02-3.01-2.17-6.1-2.17s-4.68,1.16-6.09,2.17c-1.25.91-2.33,1.69-4.59,1.69-.02,0-.04,0-.06,0v-23.86c0-.47-.25-.9-.66-1.12-.41-.23-.9-.22-1.3.03l-4.09,2.51v-31.74h-9.06v31.83l-4.36-2.61c-.4-.24-.89-.24-1.3-.02-.4.23-.65.66-.65,1.12v23.86c-2.18-.03-3.25-.79-4.48-1.68-1.41-1.02-3.01-2.17-6.1-2.17s-4.69,1.16-6.1,2.17c-1.25.91-2.33,1.69-4.59,1.69-.71,0-1.29.58-1.29,1.29s.58,1.29,1.29,1.29c3.09,0,4.69-1.16,6.1-2.17,1.25-.91,2.33-1.69,4.59-1.69s3.34.78,4.59,1.69c1.41,1.02,3.01,2.17,6.1,2.17,0,0,0,0,0,0,1,10.7,7.61,16.87,9.6,18.51.22.4.64.67,1.12.67.04,0,.07,0,.11-.01.02,0,.05.01.07.01.29,0,.58-.1.81-.29,7.69-6.25,9.26-14.77,9.54-18.9.04,0,.07,0,.1,0,3.09,0,4.68-1.16,6.09-2.17,1.25-.91,2.33-1.69,4.59-1.69s3.34.78,4.59,1.69c1.41,1.02,3.01,2.17,6.1,2.17.71,0,1.29-.58,1.29-1.29s-.58-1.29-1.29-1.29ZM58.7,118.46c-.73-.31-1.32-.74-1.96-1.2-1.19-.86-2.52-1.81-4.76-2.09v-13.66l6.72-4.13v21.07ZM48.73,67.33h3.91v30.75l-1.97,1.21-1.95-1.17v-30.8ZM49.4,101.53v13.63c-2.3.26-3.65,1.23-4.86,2.1-.68.49-1.32.95-2.12,1.26v-21.17l6.98,4.18ZM42.53,121.19c1.53-.41,2.58-1.16,3.53-1.85,1-.72,1.89-1.35,3.35-1.59v18.57c-2.47-2.61-6.2-7.71-6.88-15.13ZM51.98,136.66v-18.88c1.4.24,2.28.87,3.25,1.57.93.67,1.95,1.4,3.43,1.82-.23,3.25-1.37,10.03-6.68,15.49Z"/>
        <path class="cls-1" d="M26.47,129.45c-1.32,0-2.39-1.07-2.39-2.39s1.07-2.39,2.39-2.39,2.39,1.07,2.39,2.39-1.07,2.39-2.39,2.39Z"/>
        <circle class="cls-1" cx="26.46" cy="127.06" r="1.7"/>
        <path class="cls-1" d="M32.95,129.45c-1.32,0-2.39-1.07-2.39-2.39s1.07-2.39,2.39-2.39,2.39,1.07,2.39,2.39-1.07,2.39-2.39,2.39Z"/>
        <circle class="cls-1" cx="32.95" cy="127.06" r="1.7"/>
        <circle class="cls-1" cx="29.71" cy="132.62" r="2.39"/>
        <circle class="cls-1" cx="29.71" cy="132.62" r="1.7"/>
        <path class="cls-1" d="M36.2,135.01c-1.32,0-2.39-1.07-2.39-2.39s1.07-2.39,2.39-2.39,2.39,1.07,2.39,2.39-1.07,2.39-2.39,2.39Z"/>
        <circle class="cls-1" cx="36.2" cy="132.62" r="1.7"/>
        <path class="cls-1" d="M75.04,129.45c-1.32,0-2.39-1.07-2.39-2.39s1.07-2.39,2.39-2.39,2.39,1.07,2.39,2.39-1.07,2.39-2.39,2.39Z"/>
        <circle class="cls-1" cx="75.04" cy="127.06" r="1.7"/>
        <path class="cls-1" d="M68.56,129.45c-1.32,0-2.39-1.07-2.39-2.39s1.07-2.39,2.39-2.39,2.39,1.07,2.39,2.39-1.07,2.39-2.39,2.39Z"/>
        <circle class="cls-1" cx="68.56" cy="127.06" r="1.7"/>
        <path class="cls-1" d="M71.8,135.01c-1.32,0-2.39-1.07-2.39-2.39s1.07-2.39,2.39-2.39,2.39,1.07,2.39,2.39-1.07,2.39-2.39,2.39Z"/>
        <circle class="cls-1" cx="71.8" cy="132.62" r="1.7"/>
        <path class="cls-1" d="M65.31,135.01c-1.32,0-2.39-1.07-2.39-2.39s1.07-2.39,2.39-2.39,2.39,1.07,2.39,2.39-1.07,2.39-2.39,2.39Z"/>
        <circle class="cls-1" cx="65.31" cy="132.62" r="1.7"/>
      </g>
    </g>
  </g>
</svg>