<?xml version="1.0" encoding="UTF-8"?>
<svg id="Capa_2" data-name="Capa 2" xmlns="http://www.w3.org/2000/svg" viewBox="0 0 113.7 202.83">
  <defs>
    <style>
      .cls-1 {
        fill: #bd84a4;
      }

      .cls-2 {
        fill: #2c1947;
      }
    </style>
  </defs>
  <g id="Capa_1-2" data-name="Capa 1">
    <g>
      <path class="cls-2" d="M113.7,101.42C113.7,45.41,62.8,0,0,0v202.83c62.8,0,113.7-45.41,113.7-101.42Z"/>
      <g>
        <circle class="cls-1" cx="60.2" cy="76.12" r="1.5"/>
        <circle class="cls-1" cx="66.81" cy="76.12" r="1.5"/>
        <circle class="cls-1" cx="73.43" cy="76.12" r="1.5"/>
        <circle class="cls-1" cx="80.05" cy="76.12" r="1.5"/>
        <circle class="cls-1" cx="60.2" cy="82.88" r="1.5"/>
        <circle class="cls-1" cx="66.81" cy="82.88" r="1.5"/>
        <circle class="cls-1" cx="73.43" cy="82.88" r="1.5"/>
        <circle class="cls-1" cx="80.05" cy="82.88" r="1.5"/>
        <circle class="cls-1" cx="60.2" cy="89.64" r="1.5"/>
        <circle class="cls-1" cx="66.81" cy="89.64" r="1.5"/>
        <circle class="cls-1" cx="73.43" cy="89.64" r="1.5"/>
        <circle class="cls-1" cx="80.05" cy="89.64" r="1.5"/>
        <circle class="cls-1" cx="60.2" cy="96.4" r="1.5"/>
        <circle class="cls-1" cx="66.81" cy="96.4" r="1.5"/>
        <circle class="cls-1" cx="73.43" cy="96.4" r="1.5"/>
        <circle class="cls-1" cx="80.05" cy="96.4" r="1.5"/>
        <g>
          <path class="cls-1" d="M23.65,69.92v63h63v-63H23.65ZM83.65,99.92h-27.01v-27.01h27.01v27.01ZM53.65,82.17h-27.01v-3.12h27.01v3.12ZM53.65,85.17v3h-27.01v-3h27.01ZM53.65,91.17v2.64h-27.01v-2.64h27.01ZM53.65,96.8v3.12h-27.01v-3.12h27.01ZM53.65,109.09c-1.39-2.59-3.5-4.74-6.06-6.18h6.06v6.18ZM32.6,102.92c-2.5,1.4-4.56,3.48-5.95,5.98v-5.98h5.95ZM26.65,115.01c.61-6.3,5.54-11.33,11.8-12.1h3.3c6.68.81,11.86,6.5,11.86,13.41,0,7.46-6.05,13.51-13.51,13.51-7.02,0-12.79-5.35-13.45-12.2v-2.63ZM53.65,123.55v6.37h-6.4c2.72-1.44,4.95-3.66,6.4-6.37ZM56.65,121.14h27.01v2.64h-27.01v-2.64ZM56.65,118.15v-3h27.01v3h-27.01ZM56.65,112.15v-3.12h27.01v3.12h-27.01ZM56.65,106.04v-3.12h27.01v3.12h-27.01ZM53.65,72.91v3.15h-27.01v-3.15h27.01ZM26.65,123.75c1.45,2.62,3.65,4.77,6.3,6.17h-6.3v-6.17ZM56.65,129.92v-3.15h27.01v3.15h-27.01Z"/>
          <path class="cls-1" d="M40.09,122.12c3.19,0,5.79-2.6,5.79-5.79s-2.6-5.79-5.79-5.79-5.79,2.6-5.79,5.79,2.6,5.79,5.79,5.79ZM40.09,112.39c2.17,0,3.93,1.76,3.93,3.93s-1.76,3.93-3.93,3.93-3.93-1.76-3.93-3.93,1.76-3.93,3.93-3.93Z"/>
          <path class="cls-1" d="M40.09,125.16c4.87,0,8.84-3.96,8.84-8.84s-3.96-8.84-8.84-8.84-8.84,3.96-8.84,8.84,3.96,8.84,8.84,8.84ZM40.09,109.35c3.85,0,6.98,3.12,6.98,6.98s-3.12,6.98-6.98,6.98-6.98-3.12-6.98-6.98,3.12-6.98,6.98-6.98Z"/>
          <path class="cls-1" d="M40.09,128.57c6.75,0,12.25-5.5,12.25-12.25s-5.5-12.25-12.25-12.25-12.25,5.5-12.25,12.25,5.5,12.25,12.25,12.25ZM40.09,105.93c5.74,0,10.39,4.65,10.39,10.39s-4.65,10.39-10.39,10.39-10.39-4.65-10.39-10.39,4.65-10.39,10.39-10.39Z"/>
        </g>
      </g>
    </g>
  </g>
</svg>