<?xml version="1.0" encoding="UTF-8"?>
<svg id="Capa_2" data-name="Capa 2" xmlns="http://www.w3.org/2000/svg" xmlns:xlink="http://www.w3.org/1999/xlink" viewBox="0 0 113.7 202.83">
  <defs>
    <style>
      .cls-1 {
        fill: none;
      }

      .cls-2 {
        fill: #f1be49;
      }

      .cls-3 {
        fill: #977126;
      }

      .cls-4 {
        clip-path: url(#clippath);
      }
    </style>
    <clipPath id="clippath">
      <rect class="cls-1" x="26.06" y="72.41" width="53.92" height="59.53"/>
    </clipPath>
  </defs>
  <g id="Capa_1-2" data-name="Capa 1">
    <g>
      <path class="cls-3" d="M113.7,101.42C113.7,45.41,62.8,0,0,0v202.83c62.8,0,113.7-45.41,113.7-101.42Z"/>
      <g class="cls-4">
        <g id="ic-seed">
          <path id="Path_13" data-name="Path 13" class="cls-2" d="M53.02,72.41c-14.88.02-26.94,12.08-26.96,26.96,0,7.27,5.71,16.81,16.96,28.34,2.62,2.71,6.22,4.24,9.99,4.23h0c3.77,0,7.38-1.52,9.99-4.23,11.26-11.54,16.96-21.07,16.96-28.34-.02-14.88-12.07-26.94-26.95-26.96M58.63,123.43c-.72.75-1.59,1.34-2.54,1.75-1.95.85-4.17.85-6.13,0-.96-.41-1.82-1.01-2.54-1.75-9.67-9.91-15.22-18.68-15.22-24.06-.09-11.5,9.17-20.9,20.67-20.99,11.5-.09,20.9,9.17,20.99,20.67,0,.1,0,.21,0,.31,0,5.38-5.55,14.15-15.22,24.06"/>
        </g>
      </g>
    </g>
  </g>
</svg>