<?xml version="1.0" encoding="UTF-8"?>
<svg id="Capa_2" data-name="Capa 2" xmlns="http://www.w3.org/2000/svg" viewBox="0 0 113.7 202.83">
  <defs>
    <style>
      .cls-1 {
        fill: #bd84a4;
      }

      .cls-2 {
        fill: #2c1947;
      }
    </style>
  </defs>
  <g id="Capa_1-2" data-name="Capa 1">
    <g>
      <path class="cls-2" d="M113.7,101.42C113.7,45.41,62.8,0,0,0v202.83c62.8,0,113.7-45.41,113.7-101.42Z"/>
      <g>
        <path class="cls-1" d="M73.09,138.73c-.31,0-.61-.07-.89-.2-7.23-3.42-14.93-5.15-22.87-5.15-13.57,0-23.07,5.05-23.17,5.1-.31.17-.65.25-1,.25-.77,0-1.48-.42-1.84-1.1-.55-1.01-.17-2.29.84-2.84.39-.21,9.55-5.12,22.75-5.64l.07-2.87c-3.75-1.39-13.72-6.33-13.08-19.15l.1-1.95,1.98-.04c.46,0,10.91.16,14.18,13.44,2.17-3.59,6.13-7.5,13.24-8.59l1.93-.3.43,1.91c.03.13,2.44,11.98-12.73,17.65,7.21.48,14.25,2.33,20.96,5.5,1.04.5,1.49,1.75,1,2.79-.35.73-1.09,1.2-1.9,1.2ZM61.71,114.64c-6.53,1.92-8.98,7.03-9.9,10.59,7.95-3.06,9.62-7.92,9.9-10.59ZM38.12,109.7c.55,6.8,5.07,10.24,8.38,11.86-1.39-8.47-5.82-11.07-8.38-11.86Z"/>
        <path class="cls-1" d="M73.72,135.31c-8.33-3.94-16.28-5.4-23.27-5.55v-.32c17.32-5.12,14.72-17.57,14.69-17.7l-.3-1.33-1.35.21c-7.62,1.17-11.56,5.62-13.6,9.75-2.67-14.39-13.47-14.59-13.92-14.59,0,0-.01,0-.01,0l-1.37.03-.07,1.37c-.65,12.9,9.78,17.54,13.09,18.68l-.1,3.92c-13.28.39-22.46,5.26-23.06,5.58-.71.39-.97,1.28-.59,1.99s1.28.98,1.99.59c.22-.12,21.96-11.61,46.61.04.2.1.42.14.63.14.55,0,1.08-.31,1.33-.84.35-.73.03-1.61-.7-1.96ZM62.39,113.81c-.03,2.78-1.33,8.95-11.45,12.4.69-3.53,3.1-10.4,11.45-12.4ZM37.44,108.87c2.73.57,8.5,3.04,9.84,13.73-3.32-1.39-9.57-5.13-9.84-13.73Z"/>
        <path class="cls-1" d="M49.55,79.38c-1.38,0-2.61-.53-3.53-1.54-1.36-1.47-1.81-3.71-1.94-5.51h-16.8c-1.16,0-2.1-.94-2.1-2.1s.94-2.1,2.1-2.1h44.55c1.16,0,2.1.94,2.1,2.1s-.94,2.1-2.1,2.1h-16.91c-.09,1.8-.51,4.03-1.84,5.5-.92,1.01-2.14,1.55-3.53,1.55ZM48.28,72.33c.12,1.25.42,2.24.81,2.67.12.13.21.19.45.19s.31-.05.42-.17c.38-.42.66-1.42.75-2.69h-2.43Z"/>
        <path class="cls-1" d="M71.82,68.76H27.27c-.81,0-1.47.66-1.47,1.47s.66,1.47,1.47,1.47h17.4c.05,1.65.39,4.18,1.8,5.72.81.87,1.87,1.33,3.07,1.33s2.27-.46,3.06-1.34c1.39-1.53,1.67-4.05,1.7-5.71h17.51c.81,0,1.47-.66,1.47-1.47s-.66-1.47-1.47-1.47ZM50.43,75.44c-.24.26-.5.38-.88.38s-.66-.12-.91-.39c-.69-.74-.97-2.36-1.02-3.73h3.76c-.03,1.32-.25,2.98-.94,3.74Z"/>
        <path class="cls-1" d="M56.64,90.01c-2.15,0-3.9-1.73-3.94-3.86-.42-1.97,2.74-5.16,3.38-5.79l.38-.37.43.31c.12.09,2.88,2.13,3.54,4.71.04.12.07.27.09.42.04.25.06.44.06.64,0,2.17-1.77,3.94-3.94,3.94Z"/>
        <path class="cls-1" d="M59.92,85.58s0-.03,0-.05c-.02-.12-.05-.24-.08-.36-.61-2.39-3.3-4.36-3.3-4.36,0,0-3.67,3.56-3.19,5.26,0,1.83,1.48,3.31,3.31,3.31s3.31-1.48,3.31-3.31c0-.17-.02-.33-.04-.49Z"/>
        <path class="cls-1" d="M42.48,90.01c-2.15,0-3.9-1.73-3.94-3.86-.42-1.97,2.74-5.16,3.38-5.79l.38-.37.43.31c.12.09,2.88,2.13,3.54,4.71.04.13.07.27.09.42.04.25.06.44.06.64,0,2.17-1.77,3.94-3.94,3.94Z"/>
        <path class="cls-1" d="M45.75,85.58s0-.03,0-.05c-.02-.12-.05-.24-.08-.36-.61-2.39-3.3-4.36-3.3-4.36,0,0-3.67,3.56-3.19,5.26,0,1.83,1.48,3.31,3.31,3.31s3.31-1.48,3.31-3.31c0-.17-.02-.33-.04-.49Z"/>
        <path class="cls-1" d="M35.46,102.13c-2.15,0-3.9-1.73-3.94-3.86-.42-1.97,2.74-5.16,3.38-5.79l.38-.37.43.31c.12.09,2.88,2.13,3.54,4.71.04.12.07.27.09.42.04.25.06.45.06.64,0,2.17-1.77,3.94-3.94,3.94Z"/>
        <path class="cls-1" d="M38.73,97.7s0-.03,0-.05c-.02-.12-.05-.24-.08-.36-.61-2.39-3.3-4.36-3.3-4.36,0,0-3.67,3.56-3.19,5.26,0,1.83,1.48,3.31,3.31,3.31s3.31-1.48,3.31-3.31c0-.17-.02-.33-.04-.49Z"/>
        <path class="cls-1" d="M49.57,102.13c-2.15,0-3.9-1.73-3.94-3.86-.42-1.97,2.74-5.16,3.38-5.79l.38-.37.43.31c.12.09,2.88,2.13,3.54,4.71.04.12.07.27.09.42.04.25.06.45.06.64,0,2.17-1.77,3.94-3.94,3.94Z"/>
        <path class="cls-1" d="M52.84,97.7s0-.03,0-.05c-.02-.12-.05-.24-.08-.36-.61-2.39-3.3-4.36-3.3-4.36,0,0-3.67,3.56-3.19,5.26,0,1.83,1.48,3.31,3.31,3.31s3.31-1.48,3.31-3.31c0-.17-.02-.33-.04-.49Z"/>
        <path class="cls-1" d="M63.76,102.13c-2.15,0-3.9-1.73-3.94-3.86-.42-1.97,2.74-5.16,3.38-5.79l.38-.37.43.31c.12.09,2.88,2.13,3.54,4.71.04.12.07.27.09.42.04.25.06.45.06.64,0,2.17-1.77,3.94-3.94,3.94Z"/>
        <path class="cls-1" d="M67.03,97.7s0-.03,0-.05c-.02-.12-.05-.24-.08-.36-.61-2.39-3.3-4.36-3.3-4.36,0,0-3.67,3.56-3.19,5.26,0,1.83,1.48,3.31,3.31,3.31s3.31-1.48,3.31-3.31c0-.17-.02-.33-.04-.49Z"/>
      </g>
    </g>
  </g>
</svg>