<?xml version="1.0" encoding="UTF-8"?>
<svg id="Capa_2" data-name="Capa 2" xmlns="http://www.w3.org/2000/svg" viewBox="0 0 27.28 20.46">
  <defs>
    <style>
      .cls-1 {
        fill: #00594c;
      }
    </style>
  </defs>
  <g id="Capa_1-2" data-name="Capa 1">
    <path class="cls-1" d="M2.56,0C1.15,0,0,1.15,0,2.56c0,.8.38,1.56,1.02,2.05l11.59,8.7c.61.45,1.44.45,2.05,0l11.59-8.7c.64-.48,1.02-1.24,1.02-2.05,0-1.41-1.15-2.56-2.56-2.56H2.56ZM0,5.97v11.08c0,1.88,1.53,3.41,3.41,3.41h20.46c1.88,0,3.41-1.53,3.41-3.41V5.97l-11.59,8.7c-1.21.91-2.88.91-4.09,0L0,5.97Z"/>
  </g>
</svg>