<?xml version="1.0" encoding="UTF-8"?>
<svg id="Capa_2" data-name="Capa 2" xmlns="http://www.w3.org/2000/svg" viewBox="0 0 113.7 202.83">
  <defs>
    <style>
      .cls-1 {
        fill: #86d500;
      }

      .cls-2 {
        fill: #00594c;
      }
    </style>
  </defs>
  <g id="Capa_1-2" data-name="Capa 1">
    <g>
      <path class="cls-2" d="M113.7,101.42C113.7,45.41,62.8,0,0,0v202.83c62.8,0,113.7-45.41,113.7-101.42Z"/>
      <g>
        <path class="cls-1" d="M70.26,81.23h-20.6c-9.3,0-16.86,7.56-16.86,16.86v20.23s0,.04,0,.06c0,.11.01.21.03.32,0,.03,0,.07.02.1.03.12.06.24.11.36,0,0,0,.01,0,.02.01.03.03.07.05.1.04.09.09.18.14.26.02.04.05.07.08.11.06.08.12.15.18.22.03.03.05.06.08.09.09.09.19.18.3.25,0,0,.02,0,.02.01.1.07.21.12.32.17.04.02.08.03.12.05.09.03.18.06.27.08.04.01.08.02.13.03.13.02.27.04.41.04h20.6c9.3,0,16.86-7.56,16.86-16.86v-20.23c0-1.26-1.02-2.28-2.28-2.28ZM55.67,116.05h-14.89l16.77-15.94c.91-.87.95-2.31.08-3.22-.87-.91-2.31-.95-3.22-.08l-17.06,16.21v-14.92c0-6.78,5.52-12.3,12.3-12.3h18.32v17.95c0,6.78-5.52,12.3-12.3,12.3Z"/>
        <circle class="cls-1" cx="32.11" cy="81.14" r="2.73"/>
        <circle class="cls-1" cx="44.69" cy="74.4" r="2.73"/>
        <circle class="cls-1" cx="59.09" cy="73.27" r="2.73"/>
        <circle class="cls-1" cx="74.21" cy="74.4" r="2.73"/>
        <circle class="cls-1" cx="80.96" cy="86.25" r="2.73"/>
        <circle class="cls-1" cx="80.96" cy="100.92" r="2.73"/>
        <circle class="cls-1" cx="77.35" cy="115.39" r="2.73"/>
        <circle class="cls-1" cx="67.29" cy="125.6" r="2.73"/>
        <circle class="cls-1" cx="52.67" cy="129.57" r="2.73"/>
        <circle class="cls-1" cx="37.81" cy="129.57" r="2.73"/>
        <circle class="cls-1" cx="25.98" cy="123.78" r="2.73"/>
        <circle class="cls-1" cx="24.33" cy="109.07" r="2.73"/>
        <circle class="cls-1" cx="25.25" cy="94.14" r="2.73"/>
      </g>
    </g>
  </g>
</svg>