<?xml version="1.0" encoding="UTF-8"?>
<svg id="Capa_2" data-name="Capa 2" xmlns="http://www.w3.org/2000/svg" viewBox="0 0 256.16 128.08">
  <defs>
    <style>
      .cls-1 {
        fill: #bd84a4;
      }

      .cls-2 {
        fill: #2c1947;
      }
    </style>
  </defs>
  <g id="Capa_1-2" data-name="Capa 1">
    <g>
      <path class="cls-2" d="M128.08,128.08c70.74,0,128.08-57.34,128.08-128.08H0c0,70.74,57.34,128.08,128.08,128.08Z"/>
      <g>
        <path class="cls-1" d="M128.23,103.39h-.03s-.07,0-.07,0c-.68,0-1.31-.35-1.68-.92-2.15-1.79-8.65-8.01-9.87-18.62-2.98-.15-4.64-1.35-5.99-2.33-1.23-.89-2.19-1.58-4.26-1.58s-3.04.7-4.26,1.58c-1.45,1.05-3.25,2.35-6.62,2.35-1.11,0-2.01-.9-2.01-2.01s.9-2.01,2.01-2.01c2.07,0,3.04-.7,4.26-1.58,1.44-1.05,3.24-2.35,6.62-2.35s5.17,1.3,6.62,2.35c1.05.76,1.91,1.38,3.45,1.54v-23.55c0-.72.39-1.39,1.02-1.75.3-.17.64-.26.99-.26s.72.1,1.03.29l3.38,2.02v-31.87h10.63v31.76l3.09-1.9c.32-.19.68-.3,1.05-.3.34,0,.68.09.98.25.64.35,1.03,1.03,1.03,1.76v23.56c1.66-.14,2.53-.77,3.61-1.55,1.44-1.05,3.24-2.35,6.61-2.35s5.17,1.3,6.62,2.35c1.22.89,2.19,1.58,4.26,1.58,1.11,0,2.01.9,2.01,2.01s-.9,2.01-2.01,2.01c-3.37,0-5.17-1.3-6.61-2.34-1.23-.89-2.19-1.59-4.26-1.59s-3.03.7-4.26,1.58c-1.37.99-3.05,2.2-6.07,2.33-.44,4.73-2.35,12.93-9.92,19.08-.36.29-.81.45-1.27.45h-.08ZM130.14,96.74c3.94-4.77,5.06-10.2,5.35-13.44-1.36-.48-2.34-1.19-3.15-1.78-.72-.52-1.36-.98-2.2-1.27v16.49ZM120.58,83.33c.68,5.99,3.39,10.4,5.54,13.05v-16.16c-.89.29-1.56.76-2.3,1.3-.83.6-1.84,1.33-3.25,1.81ZM120.42,78.98c.37-.22.71-.47,1.05-.72,1.12-.81,2.48-1.79,4.65-2.18v-12.87l-5.7-3.41v19.18ZM130.14,76.11c2.12.4,3.46,1.36,4.56,2.16.3.21.59.42.88.61v-19.02l-5.44,3.35v12.91ZM128.12,59.72l1.31-.8v-30.21h-2.58v30.25l1.28.76Z"/>
        <path class="cls-1" d="M160.7,80.55c-2.29,0-3.39-.8-4.67-1.72-1.44-1.04-3.06-2.21-6.21-2.21s-4.77,1.18-6.2,2.21c-1.27.92-2.37,1.72-4.67,1.72-.02,0-.04,0-.06,0v-24.29c0-.47-.26-.91-.67-1.14-.41-.23-.92-.22-1.33.03l-4.16,2.56V25.39h-9.22v32.4l-4.44-2.66c-.41-.24-.91-.25-1.32-.02-.41.23-.66.67-.66,1.14v24.29c-2.22-.03-3.31-.81-4.56-1.71-1.44-1.04-3.06-2.21-6.21-2.21s-4.77,1.18-6.21,2.21c-1.27.92-2.38,1.72-4.67,1.72-.72,0-1.31.59-1.31,1.31s.59,1.31,1.31,1.31c3.14,0,4.77-1.18,6.21-2.21,1.27-.92,2.38-1.72,4.67-1.72s3.4.8,4.67,1.72c1.44,1.04,3.06,2.21,6.21,2.21,0,0,0,0,0,0,1.02,10.89,7.74,17.18,9.77,18.84.22.41.65.69,1.14.69.04,0,.07,0,.11-.01.02,0,.05.01.07.01.29,0,.59-.1.83-.29,7.83-6.36,9.42-15.04,9.71-19.23.04,0,.07,0,.1,0,3.14,0,4.77-1.18,6.2-2.21,1.27-.92,2.37-1.72,4.67-1.72s3.4.8,4.67,1.72c1.44,1.04,3.06,2.21,6.2,2.21.72,0,1.31-.59,1.31-1.31s-.59-1.31-1.31-1.31ZM136.28,80.05c-.74-.32-1.34-.75-1.99-1.22-1.21-.88-2.57-1.84-4.85-2.12v-13.9l6.84-4.21v21.45ZM126.14,28.01h3.98v31.3l-2,1.23-1.98-1.19v-31.35ZM126.82,62.82v13.88c-2.34.27-3.71,1.25-4.94,2.14-.7.5-1.34.96-2.16,1.28v-21.55l7.1,4.25ZM119.82,82.83c1.55-.42,2.62-1.18,3.59-1.88,1.01-.73,1.93-1.38,3.41-1.62v18.9c-2.52-2.66-6.32-7.85-7-15.41ZM129.44,98.57v-19.22c1.43.25,2.32.88,3.31,1.6.95.69,1.99,1.42,3.49,1.85-.23,3.31-1.39,10.21-6.8,15.77Z"/>
        <path class="cls-1" d="M103.47,91.23c-1.34,0-2.43-1.09-2.43-2.43s1.09-2.43,2.43-2.43,2.43,1.09,2.43,2.43-1.09,2.43-2.43,2.43Z"/>
        <circle class="cls-1" cx="103.47" cy="88.8" r="1.73"/>
        <path class="cls-1" d="M110.08,91.23c-1.34,0-2.43-1.09-2.43-2.43s1.09-2.43,2.43-2.43,2.43,1.09,2.43,2.43-1.09,2.43-2.43,2.43Z"/>
        <circle class="cls-1" cx="110.08" cy="88.8" r="1.73"/>
        <circle class="cls-1" cx="106.77" cy="94.46" r="2.43"/>
        <circle class="cls-1" cx="106.77" cy="94.46" r="1.73"/>
        <path class="cls-1" d="M113.38,96.89c-1.34,0-2.43-1.09-2.43-2.43s1.09-2.43,2.43-2.43,2.43,1.09,2.43,2.43-1.09,2.43-2.43,2.43Z"/>
        <circle class="cls-1" cx="113.38" cy="94.46" r="1.73"/>
        <path class="cls-1" d="M152.92,91.23c-1.34,0-2.43-1.09-2.43-2.43s1.09-2.43,2.43-2.43,2.43,1.09,2.43,2.43-1.09,2.43-2.43,2.43Z"/>
        <circle class="cls-1" cx="152.92" cy="88.8" r="1.73"/>
        <path class="cls-1" d="M146.32,91.23c-1.34,0-2.43-1.09-2.43-2.43s1.09-2.43,2.43-2.43,2.43,1.09,2.43,2.43-1.09,2.43-2.43,2.43Z"/>
        <circle class="cls-1" cx="146.32" cy="88.8" r="1.73"/>
        <path class="cls-1" d="M149.62,96.89c-1.34,0-2.43-1.09-2.43-2.43s1.09-2.43,2.43-2.43,2.43,1.09,2.43,2.43-1.09,2.43-2.43,2.43Z"/>
        <circle class="cls-1" cx="149.62" cy="94.46" r="1.73"/>
        <path class="cls-1" d="M143.02,96.89c-1.34,0-2.43-1.09-2.43-2.43s1.09-2.43,2.43-2.43,2.43,1.09,2.43,2.43-1.09,2.43-2.43,2.43Z"/>
        <circle class="cls-1" cx="143.02" cy="94.46" r="1.73"/>
      </g>
    </g>
  </g>
</svg>