<?xml version="1.0" encoding="UTF-8"?>
<svg xmlns="http://www.w3.org/2000/svg" version="1.1" xmlns:xlink="http://www.w3.org/1999/xlink" viewBox="0 0 84.5 109.4">
  <defs>
    <style>
      .cls-1 {
        fill: #fff;
      }

      .cls-2 {
        fill: none;
      }

      .cls-3 {
        fill: url(#Degradado_sin_nombre_47);
      }

      .cls-4 {
        clip-path: url(#clippath);
      }
    </style>
    <linearGradient id="Degradado_sin_nombre_47" data-name="Degradado sin nombre 47" x1="42.3" y1="16.1" x2="42.3" y2="86.6" gradientTransform="translate(0 112) scale(1 -1)" gradientUnits="userSpaceOnUse">
      <stop offset="0" stop-color="#333a2d"/>
      <stop offset="1" stop-color="#9d9d9d"/>
    </linearGradient>
    <clipPath id="clippath">
      <path class="cls-2" d="M20.4,25.2s5.3,3.4,8.4,9c1.9,3.6,2.4,6.7,2.7,7.8,5.9.1,8.5,2.8,11.9,9,.8,1.4,1.5,2.7,2.3,4h0s0,0,0,0c-1.1-1.7-2.3-3.5-3.4-5-2.5-3.4-5.7-6.5-10.6-6.6-1.1,0-1.5,0-1.9,0-.5,0-1,0-2.8,0,5.3,2.9,5.7,10.2,9.1,15,3.1,4.4,5.8,8,13.6,9.5,1.1.2,3.7.6,4.9.5-1.6-1.4-2.9-3.3-4.3-5.7-.4-.7-2.2-4.1-3.7-8.9-1.5-4.7-3-10.5-3.7-13.6-1.5-6.3-4-12-11.4-14.2-2.2-.7-6.5-.8-9-.8s-2.1,0-2.1,0h0Z"/>
    </clipPath>
  </defs>
  <!-- Generator: Adobe Illustrator 28.6.0, SVG Export Plug-In . SVG Version: 1.2.0 Build 709)  -->
  <g>
    <g id="Capa_2">
      <g id="Capa_1-2">
        <g>
          <path class="cls-3" d="M77.5,44.8c0-8.9-4.3-18-11-24-.4-.3-.8-.7-1.1-1-6.4-5.3-14.7-8.2-23.2-8.2C22.8,11.6,7,26.4,7,44.8s5.4,15.9,9.9,23.1l19.3,31.5c2.8,4.5,9.4,4.5,12.2,0h0c3.9-6.4,7.8-12.7,11.7-19.1,2.5-4.1,4.9-8.2,7.5-12.2,2.1-3.3,4.2-6.6,6.2-10,2.4-4.1,4-8.6,4-13.4Z"/>
          <g>
            <g>
              <path class="cls-1" d="M57.3,25.2l-8.2,31.6c1.7,4.2,3.3,7.7,5.8,10l9-34.7v-.3c.2-.4.2-.8.2-1.3,0-3.3-3-5.4-6.8-5.5"/>
              <path class="cls-1" d="M26.6,44.7l-6.1,23.1h8.4l3.5-13.4c-1.6-4.4-3.1-7.8-5.8-9.8"/>
            </g>
            <g>
              <path class="cls-1" d="M20.4,25.2s5.3,3.4,8.4,9c1.9,3.6,2.4,6.7,2.7,7.8,5.9.1,8.5,2.8,11.9,9,.8,1.4,1.5,2.7,2.3,4h0s0,0,0,0c-1.1-1.7-2.3-3.5-3.4-5-2.5-3.4-5.7-6.5-10.6-6.6-1.1,0-1.5,0-1.9,0-.5,0-1,0-2.8,0,5.3,2.9,5.7,10.2,9.1,15,3.1,4.4,5.8,8,13.6,9.5,1.1.2,3.7.6,4.9.5-1.6-1.4-2.9-3.3-4.3-5.7-.4-.7-2.2-4.1-3.7-8.9-1.5-4.7-3-10.5-3.7-13.6-1.5-6.3-4-12-11.4-14.2-2.2-.7-6.5-.8-9-.8s-2.1,0-2.1,0"/>
              <g class="cls-4">
                <rect class="cls-1" x="12.7" y="25.6" width="49.4" height="42.4" transform="translate(-16.1 73.7) rotate(-78)"/>
              </g>
            </g>
          </g>
        </g>
      </g>
    </g>
  </g>
</svg>