<?xml version="1.0" encoding="UTF-8"?>
<svg id="Capa_2" xmlns="http://www.w3.org/2000/svg" version="1.1" viewBox="0 0 441.1 257.2">
  <!-- Generator: Adobe Illustrator 29.6.1, SVG Export Plug-In . SVG Version: 2.1.1 Build 9)  -->
  <defs>
    <style>
      .st0 {
        fill: #87be28;
      }

      .st1 {
        fill: #191919;
      }
    </style>
  </defs>
  <g id="Capa_1-2">
    <g>
      <g>
        <path class="st1" d="M10.2,245.2c0,3.9.3,5.2,3.8,5.2h1.8c3.4,0,3.8-1.2,3.8-5.2v-12.3h6.9v13.5c0,8.5-2,10.9-9.8,10.9h-4c-7.7,0-9.8-2.4-9.8-10.9v-37.7c0-8.5,2.1-10.9,9.8-10.9h4c7.8,0,9.8,2.4,9.8,10.9v11h-7v-9.8c0-3.9-.3-5.2-3.8-5.2h-1.8c-3.4,0-3.8,1.3-3.8,5.2v35.3h0Z"/>
        <path class="st1" d="M56.3,246.5c0,3.8.3,7.4,1.3,10.3h-7.7c-.8-1.9-.9-5.4-.9-9.1v-11.2c0-4-.7-5.9-4.3-5.9h-4.9v26.2h-7.4v-58.6h14.2c7.8,0,9.8,2.4,9.8,10.9v8c0,6.1-1.1,9-4.7,10.1,3.6,1.2,4.7,4.1,4.7,10.3v9h0ZM49,210.2c0-3.9-.2-5.2-3.8-5.2h-5.5v18.7h5.5c3.4,0,3.8-1.2,3.8-5.2v-8.3Z"/>
        <path class="st1" d="M69.9,222.7h9.1v6.9h-9.1v20.3h11v6.9h-18.3v-58.6h18.3v6.9h-11v17.7h0Z"/>
        <path class="st1" d="M92.8,245.2c0,3.9.3,5.2,3.8,5.2h1.8c3.4,0,3.8-1.2,3.8-5.2v-12.3h6.9v13.5c0,8.5-2,10.9-9.8,10.9h-4c-7.7,0-9.8-2.4-9.8-10.9v-37.7c0-8.5,2.1-10.9,9.8-10.9h4c7.8,0,9.8,2.4,9.8,10.9v11h-6.9v-9.8c0-3.9-.3-5.2-3.8-5.2h-1.8c-3.4,0-3.8,1.3-3.8,5.2v35.3h0Z"/>
        <path class="st1" d="M115.1,198.2h7.4v58.6h-7.4v-58.6Z"/>
        <path class="st1" d="M136.6,222.7h9.1v6.9h-9.1v20.3h11v6.9h-18.3v-58.6h18.3v6.9h-11v17.7h0Z"/>
        <path class="st1" d="M160.6,222.9c-.8-3.7-1.3-7.1-1.8-10.6,0,3.4.2,6.9.2,10.7v33.7h-6.4v-58.6h9.3l6.9,31.3c.8,3.7,1.4,7.1,1.9,10.6,0-3.4-.3-6.9-.3-10.6v-31.2h6.4v58.6h-8.4l-7.9-33.9h0Z"/>
        <path class="st1" d="M183.4,198.2h14.1c7.8,0,9.9,2.4,9.9,10.9v36.8c0,8.5-2.1,10.9-9.9,10.9h-14.1v-58.6h0ZM196.3,249.9c3.4,0,3.8-1.2,3.8-5.2v-34.5c0-3.9-.3-5.2-3.8-5.2h-5.5v44.9h5.5Z"/>
        <path class="st1" d="M213.1,208.7c0-8.5,2.1-10.9,9.8-10.9h4.4c7.7,0,9.8,2.4,9.8,10.9v37.7c0,8.5-2.1,10.9-9.8,10.9h-4.4c-7.7,0-9.8-2.4-9.8-10.9v-37.7ZM229.8,209.8c0-3.9-.3-5.2-3.8-5.2h-1.8c-3.4,0-3.8,1.3-3.8,5.2v35.3c0,3.9.3,5.2,3.8,5.2h1.8c3.4,0,3.8-1.2,3.8-5.2v-35.3Z"/>
        <path class="st1" d="M261.7,245.2c0,3.9.3,5.2,3.8,5.2h1.8c3.4,0,3.8-1.2,3.8-5.2v-12.3h7v13.5c0,8.5-2,10.9-9.8,10.9h-4c-7.7,0-9.8-2.4-9.8-10.9v-37.7c0-8.5,2.1-10.9,9.8-10.9h4c7.8,0,9.8,2.4,9.8,10.9v11h-7v-9.8c0-3.9-.3-5.2-3.8-5.2h-1.8c-3.4,0-3.8,1.3-3.8,5.2v35.3h0Z"/>
        <path class="st1" d="M283.5,208.7c0-8.5,2.1-10.9,9.8-10.9h4.4c7.7,0,9.8,2.4,9.8,10.9v37.7c0,8.5-2.1,10.9-9.8,10.9h-4.4c-7.7,0-9.8-2.4-9.8-10.9v-37.7ZM300.2,209.8c0-3.9-.3-5.2-3.8-5.2h-1.8c-3.4,0-3.8,1.3-3.8,5.2v35.3c0,3.9.3,5.2,3.8,5.2h1.8c3.4,0,3.8-1.2,3.8-5.2v-35.3Z"/>
        <path class="st1" d="M321.7,222.9c-.8-3.7-1.3-7.1-1.8-10.6,0,3.4.2,6.9.2,10.7v33.7h-6.4v-58.6h9.3l7,31.3c.8,3.7,1.4,7.1,1.9,10.6,0-3.4-.3-6.9-.3-10.6v-31.2h6.5v58.6h-8.4l-7.9-33.9h0Z"/>
        <path class="st1" d="M364.5,223.9c1.1,8.1,1.8,17,2.3,22.9.5-5.9,1.3-14.7,2.4-22.9l3.4-25.7h6.6l-7.9,58.6h-9.8l-8-58.6h7.5l3.4,25.7h0Z"/>
        <path class="st1" d="M383.1,208.7c0-8.5,2.1-10.9,9.8-10.9h4.4c7.7,0,9.8,2.4,9.8,10.9v37.7c0,8.5-2.1,10.9-9.8,10.9h-4.4c-7.7,0-9.8-2.4-9.8-10.9v-37.7ZM399.7,209.8c0-3.9-.3-5.2-3.8-5.2h-1.8c-3.4,0-3.8,1.3-3.8,5.2v35.3c0,3.9.3,5.2,3.8,5.2h1.8c3.4,0,3.8-1.2,3.8-5.2v-35.3Z"/>
        <path class="st1" d="M427.9,241.1c0-5.3-1.2-6.9-7.1-12.1-6.8-6.1-8.5-8.7-8.5-16.4v-3.9c0-8.5,2-10.9,9.8-10.9h3.4c7.8,0,9.8,2.4,9.8,10.9v9.1h-7v-8c0-3.9-.2-5.2-3.8-5.2h-1.2c-3.4,0-3.8,1.3-3.8,5v2.8c0,5.3,1.3,6.9,7.1,12.2,6.8,6.1,8.6,8.6,8.6,16.3v5.4c0,8.5-2.1,10.9-9.8,10.9h-3.5c-7.7,0-9.7-2.4-9.7-10.9v-10.8h6.9v9.6c0,3.9.2,5.2,3.8,5.2h1.2c3.4,0,3.8-1.2,3.8-5.2v-4.1h0Z"/>
      </g>
      <g>
        <path class="st0" d="M63.1,41c0,5.4-4.3,4.8-7.3,8.6-1.1,1.3-5.4,2.4-9.7,2.4s-7-.8-8.4-2.4c-2.7-2.4-6.5-9.4-6.5-11.3,0-10.5,9.4-14.6,17.3-22.1,1.9-1.9,7.5-2.4,10.2-3.8,5.7-3.5,20-12.4,34-12.4s10,.5,14,3.8c1.1.5,1.9,1.1,3.5,1.4,5.9,1.9,8.9,6.2,10,8.4,1.3,2.2,1.6,4.6,1.6,5.9,0,3.5-1.1,6.2-2.7,9.4-1.1,2.7-1.3,4.6-2.7,6.5-9.4,16.7-20,29.9-27.5,37.8,23.7,4.8,25.3,23.7,25.3,32.1s-4.6,23.2-9.7,34c-9.4,19.7-22.7,40.4-49.9,40.4s-42.6-22.4-50.7-31.8C1.9,145.3,0,141.6,0,138.3s1.9-6.2,8.6-6.2,7.8-.8,11.1-.8,5.9,1.1,7.8,3.2c3.5,4.3,9.2,7.6,9.2,11.9s8.6,10.8,15.4,10.8,2.2,0,4.6-1.4c10.2-6.7,16.2-14.8,22.7-29.1,3.2-7.6,7-19.1,7-21.8,0-4.6-1.3-7.6-3-10-1.1-1.9-2.7-2.2-4.6-2.2s-3.8.8-5.7,1.6c-2.4,1.1-5.1,1.1-7.8,2.4-4.9,2.7-14.3,9.4-24.5,9.4s-4.8-.3-7.3-1.1c-4.3-1.3-7.5-7.6-7.5-11.6s.5-2.7,1.4-3.5c3.2-3,7-5.1,11.3-7.6,4.3-2.7,5.7-4.8,6.7-5.7,24.8-16.5,36.1-37.8,42.3-49.9.5-1.4,1.1-2.4,1.1-3.2s-.5-.8-.8-.8-1.1,0-2.7.8c-9.4,4.9-22.1,13.5-22.1,17.3h0Z"/>
        <path class="st0" d="M199.6,14.3c4,0,8.9,1.9,12.7,3.8,4.6,2.4,10,5.7,11.9,9.2,4.6,9.2,6.5,19.1,6.5,29.1,0,18.9-5.4,35.3-12.7,52.3-1.9,4.6-3,14-22.1,43.4-10.5,16.4-27.2,27-40.7,27s-32.1-11.3-39.4-26.1c-.8-1.4-4-11.6-4-22.1s4.3-33.7,14.6-56.3c10.2-22.4,25.6-41.5,42.6-61.5,2.4-2.7,6.5-3,11.3-3s5.7.3,8.1,1.4c2.7,1.1,5.9,4.3,7,4.3s1.6-1.4,4.3-1.4h0ZM175.3,127c1.9-3.5,5.4-7.6,7.3-12.1,3.8-10,19.7-41.5,19.7-63.9s-2.4-15.1-8.1-18.9c-.8-.3-1.4-.8-2.2-.8s-1.9.8-3,2.4c-17.8,20-34.5,46.1-43.4,70.6-3.2,8.1-2.7,10.8-3.5,13.5-1.6,6.5-3,13.5-3,26.1s.8,6.7,1.4,8.1c1.4,1.9,2.4,5.4,4.3,5.4,5.7,0,18.3-8.6,30.5-30.5h0Z"/>
      </g>
      <g>
        <path class="st1" d="M334.7,72.9l2.2-5.9c1.6-3.1,1.7-5.6,1.7-6.3,0-1.4-.6-2.9-2-4.9-.7-1.1-2.4-3.5-5.9-3.5-.1,0-.5-.1-.7-.2-1-.3-2.5-.8-4.6-.8s-1.7,0-2.4.2c.5-.3,1.1-.6,1.8-1,2.6-1.5,4-2.6,5.2-3.5.3-.2.6-.5.9-.7.9-.6,2.6-1.9,2.6-4.3s0-1.3-.1-3.4c-.3-3.6-2.9-6-6.7-6s-2.8.2-7.5,2.1h0c-.4.2-.7.3-1,.4-.4-.8-.7-1.8-.9-2.2-2.1-5.1-5.4-7.7-9.7-7.7s-3.6,0-7.5,1.7l-7.3,3.2c-2,.9-3.2,3-3.2,6s.1,2.1.3,2.8c.1.6.2,1,.2,1.7,0,4.8,5.3,5.6,8.4,5.6s3.2-.2,5.3-1.6c2.9,7.8,8.2,8.7,11.9,8.7s3.3,0,5.1-.7c-1,.9-1.8,2.3-2.5,4.6-.8,2.8-1.2,5.7-1.6,8.5-.3,2.4-.7,4.7-1.2,6.8-.3,1.3-.6,2.2-1.1,3.3-.4,1-.8,2.3-1.4,4.3-.7,2.1-1.3,4.3-2,6.5-3.3,10.6-6.6,21.4-10.2,31.4-.4-7-.6-14.2-.8-21.1-.4-15.4-.8-31.4-3.9-46.1-1-4.4-3.7-5-6.1-5-5.4,0-8.4,1.1-9.9,2.1-2.7,1.6-2.7,3.5-2.7,5.6s.4,3.8.7,5c0,.1,0,.3,0,.4-.8.6-1.6,1.6-2,3.2l-5.8,21.6-2.2,7.6c-.2.6-.7,2.4-1.5,5-1,3.3-2,6.5-2.9,9.4,0-.1-.1-.2-.2-.3-2.6-4.5-8.9-4.5-11-4.5s-.9,0-1.3,0c.8-7,2.7-22.7,4.4-30.6.2-1,.3-2,.4-3.1.1-1.4.3-2.8.7-4.7,0,0,2.1-9.1,2.1-11.1s-.4-1.9-.6-2.5c0-.1-.1-.2-.1-.3h0c-1-4.1-7.6-4.2-8.3-4.2-2.6,0-4.4.3-6.3,1.2-.9.4-1.8.5-2.1.5-2.6,0-3.6,1.6-5.9,5.4-12.9,21.2-23.6,40.4-34.3,61.7-.8-.2-1.7-.4-2.9-.4-2.7,0-4.6.9-5.6,2.7-1,1.9-2.6,7-2.6,9.4s1.6,4.7,3.6,6.2c-.7,2.8-2.1,8.2-2.1,14.7s1,6.6,3.8,8.9c2.4,2.1,4.9,2.3,5.6,2.3,3.9,0,6.1-2.2,7.3-3.4.2-.2.5-.5.5-.5.7-.5,2.1-1.6,2.1-3.9s0-.6,0-1c0-.4,0-.8,0-1.7,0-5.6.7-9.7,2.4-13.6,0,0,0,0,0,0,3.7-.8,10.5-3.3,16.3-5.6,0,.4,0,.8-.1,1.3-1.2,11.2-1.4,14.9-1.4,19.6,0,6.7.5,10.1,1.9,12.1,1.9,2.8,5.2,4.2,9.7,4.2s3.3,0,5-1.6c2.2-2.2,3.4-3.4,3.4-6.1s-.1-1.2-.3-1.8c-.3-1.1-1-3.5-1-8.7s0-2.3.1-4.7c.1-1.9.2-3.8.3-5.4,0-1.4.2-2.9.2-3.4l1.6-13.1c0-.7.1-1.2.2-1.5h0c.2-.2,1-.5,2.1-.5,3.5-.2,6.9-.5,9.5-2.3-5.8,19.2-8.3,28.6-8.3,31.1s.6,3.8,3.1,5.2h0c1.6,1.7,3.4,2.2,7.4,2.2,7.1,0,9-3.8,9.1-6,0-.2.1-1.1.7-4.6,1.5-9.6,4.4-21.6,9.2-37.2.5,12,1.2,24.7,2.8,34.2.6,3.6,1.9,7.8,7,10.9,3.1,1.9,5.1,2.1,7,2.1,3.8,0,5.3-.7,8.6-4s2.4-2.9,3.4-5.6v-.2c7.2-18.3,12.2-34.1,16.6-48,2.5-8,4.9-15.6,7.4-22.6h0ZM234.1,89.3c-.7,4.6-1.6,10.5-2.9,18.1l-6.7,3.1h0c-.6.3-1.2.6-1.9.8,3.9-7.6,7.5-14.5,11.4-22h0Z"/>
        <path class="st1" d="M440.7,73.4c0-.6-.2-1.1-.2-1.7-.5-3.7-1-7.9-3.5-11.5-5.8-8.5-13.3-9.6-20.6-9.6s-9.3,4.8-10.2,6.9c-.8,2-2.8,9.2-2.8,13.8s0,4.7.4,10c.6,7.7,1.7,14.7,2.8,21.5,1,6.1,1.9,11.8,2.5,18,.3,3.3.4,5.5.4,10.4s-.1,2.5-.2,4v.6c-.1.6-.3,1.1-.5,1.5-.2-.1-.5-.2-.8-.4-4.7-2.7-9.7-8.4-11.6-13.4-.2-.5-.2-.8-.2-1,0-.9.1-1.2.4-1.8.3-.8.8-1.9.8-3.7,0-3.3-4.5-7.5-4.7-7.8-2.1-1.9-5.3-2.9-9.2-2.9s-.6,0-.9,0c.9-3.2,1.8-6.2,2.5-8.9,1.5-5.6,2-8.4,2-14.2s-.8-15.9-7.1-23.7c-2.1-2.6-4.1-2.8-6.2-2.8-.3-.1-.8-.4-1.2-.6-1.8-1-4.2-2.3-7.2-2.3s-4.1.9-6,2.2h-.1c-6.1,4.3-10.2,9.9-15.7,18.7-11.5,18.5-17.4,37.4-17.4,55.9s1.5,9.4,3,12.9c1.4,3,4.4,7,7.8,8.4,2.8,1.2,4.8,1.7,9.1,1.7,8.7,0,15.5-3.5,20.3-10.3,4.1-5.8,7.5-12.6,10.3-19.6,1.2,5,3.5,8.1,4.7,9.7.1.2.3.4.3.4,7.4,13.2,18,20.5,30,20.5s5.7,0,7.2-.8c3.7-1.8,10-7.3,10-17.1s0-3.8-.3-8.4c-.4-8.3-2.4-20.9-4-31-.5-3.5-1-6.5-1.4-8.8-.4-2.6-.5-7.4-.5-10.1s0-1.6,0-2.3c.1.3.2.6.4.9,3.2,6.2,7.6,7.5,10.8,7.5s7.3-1.7,7.3-5.3,0-2-.5-5.3h0ZM367.8,79.5c0,5.7-1.1,12.4-3.4,20.5-3.5,12.8-7.1,21.5-13.8,33.5-.8,1.4-2.9,2.8-3.9,3.1,0,0-.1-.2-.2-.3-1.2-2.5-1.8-5.6-1.8-9.5s.5-5.4.9-7.9c.2-1.2.4-2.2.5-3,.2-2.4,1-5.2,1.9-7.8,2.8-9.2,7.5-18.8,13.8-27.8,1.8-2.6,3.5-4.6,4.6-5.9,1.2,1.2,1.4,3.5,1.4,5.3h0Z"/>
      </g>
    </g>
  </g>
</svg>