<?xml version="1.0" encoding="UTF-8"?>
<svg id="Capa_2" data-name="Capa 2" xmlns="http://www.w3.org/2000/svg" viewBox="0 0 117.64 42.43">
  <defs>
    <style>
      .cls-1 {
        fill: #f0bc3f;
      }
    </style>
  </defs>
  <g id="Capa_1-2" data-name="Capa 1">
    <path class="cls-1" d="M114.29,12.64v.02-.02ZM113.9,15.35c.05-.11.09-.2,0,0M15.95,15.71s-.02.02,0,0M3.89,27.41s-.02-.05-.02-.07c0,.05.02.05.02.07M116.89,10.06c-1.49-3.3-4.86-5.27-8.05-6.58-4.43-1.81-9.27-2.53-14-2.99-5.95-.59-11.96-.59-17.94-.32-6.79.29-13.53,1-20.24,1.92-6.63.93-13.23,2.15-19.77,3.66-5.86,1.36-11.67,2.96-17.3,5-.86.32-1.72.63-2.58.95h-5.09v2.15c-1.81.86-3.55,1.79-5.22,2.87-2.67,1.72-5.61,4.03-6.47,7.24-.43,1.63-.27,3.42.66,4.86.97,1.47,2.47,2.49,4.05,3.19,4.64,2.06,9.97,2.44,15,2.67,6.83.29,13.68-.05,20.51-.61,7.62-.63,15.2-1.58,22.75-2.8,6.72-1.09,13.43-2.35,20.04-3.98,2.51-.61,5.02-1.29,7.51-2.08,2.04-.63,1.18-3.85-.88-3.21-5.52,1.74-11.2,3.01-16.87,4.14-6.99,1.38-14.23,2.53-21.08,3.39-7.19.9-14.43,1.56-21.67,1.81-3.21.11-6.42.14-9.64.02-1.45-.05-2.9-.14-4.34-.27-.68-.07-1.33-.14-2.01-.2-.16-.02-.29-.05-.45-.05-.07,0-.16-.02-.2-.02-.29-.05-.61-.09-.9-.14-2.1-.34-4.14-.84-6.13-1.58-.11-.05-.2-.09-.32-.14-.18-.09-.38-.18-.57-.29-.34-.18-.68-.38-1-.61-.05-.02-.07-.05-.09-.07l-.05-.05c-.14-.14-.27-.25-.41-.36-.09-.09-.18-.2-.27-.29l-.05-.05c-.16-.16-.07-.11,0-.02-.02-.05-.07-.07-.09-.11-.07-.11-.16-.25-.23-.38-.02-.05-.05-.09-.07-.11-.05-.14-.09-.25-.11-.38,0-.05-.02-.09-.02-.14.02-.23.02-.5.02-.72,0,.18-.07.09-.02-.09,0-.02,0-.05.02-.07v-.05.05c.02-.07.02-.11.05-.18.05-.16.09-.34.14-.5.02-.09.07-.2.11-.29.02-.05.05-.11.07-.16.14-.27.29-.54.47-.79.07-.11.16-.23.23-.34.05-.05.09-.11.14-.16.23-.27.47-.54.72-.79.27-.27.54-.52.84-.77.14-.11.29-.25.43-.36.07-.07.16-.11.23-.18.75-.54,1.47-1.06,2.26-1.54,1.81-1.11,3.71-2.08,5.65-2.94.27-.11.54-.25.81-.36.14-.05.25-.11.38-.16.05-.02.11-.05.16-.07.59-.25,1.15-.48,1.74-.7,1.22-.48,2.47-.93,3.71-1.38,2.71-.95,5.45-1.79,8.19-2.56,6.08-1.72,12.26-3.08,18.48-4.21,6.69-1.22,12.76-2.06,19.47-2.69,6.24-.59,12.53-.9,18.82-.79,2.8.05,5.63.18,8.44.45.66.07,1.31.14,1.95.2.16.02.29.05.45.05.07,0,.16.02.23.02.27.05.57.07.84.11,1.18.18,2.38.38,3.55.63,2.06.43,4.07,1.02,6.02,1.79.11.05.52.23.05.02.09.05.2.09.29.14.2.09.43.18.63.29.41.18.79.38,1.18.61.36.2.72.43,1.06.66.16.11.32.23.45.32l.02.02s-.02-.02-.05-.02c.07.07.16.14.25.2.29.25.57.5.84.77.11.11.23.25.34.38.14.16.45.68.16.16.18.29.41.57.59.86.09.14.16.27.23.43.02.07.07.14.09.18.11.38.25.72.32,1.11,0,.05.02.11.02.16.02.18.02.38.02.57,0,.16-.02.32-.05.47-.02.09-.05.18-.07.29-.09.38-.25.75-.36,1.13-.05.11-.09.2-.16.32-.11.2-.23.43-.34.63-.14.23-.27.43-.41.63-.07.09-.14.18-.2.27-.02.02-.05.05-.07.07-.77.95-1.65,1.79-2.6,2.58-.14.11-.27.23-.41.32-.05.05-.09.07-.14.11-.29.23-.61.45-.9.66-.66.45-1.36.9-2.04,1.31-1.61.95-3.28,1.81-4.98,2.58-.47.23-.97.43-1.45.63-.05.02-.07.02-.11.05-.11.05-.2.09-.32.14-.27.11-.57.23-.84.34-1.11.45-2.22.86-3.35,1.27-5.5,1.95-11.15,3.41-16.83,4.66-7.6,1.65-15.31,2.9-23,3.85-9.93,1.24-19.93,2.08-29.92,2.65-5.74.34-11.49.59-17.26.75-2.13.07-2.15,3.39,0,3.32,11.42-.36,22.84-.97,34.22-2.01,9.02-.84,18.05-1.92,27.01-3.46,6.74-1.15,13.43-2.56,20.02-4.46,4.84-1.38,9.61-3.03,14.18-5.18,3.14-1.49,6.22-3.23,8.87-5.52,1.83-1.58,3.44-3.51,4.3-5.81.72-1.92.57-4.03-.29-5.93"/>
  </g>
</svg>