<?xml version="1.0" encoding="UTF-8"?>
<svg id="Capa_2" data-name="Capa 2" xmlns="http://www.w3.org/2000/svg" viewBox="0 0 130 52.54">
  <defs>
    <style>
      .cls-1 {
        fill: #88d600;
      }

      .cls-2 {
        fill: #fff;
      }
    </style>
  </defs>
  <g id="Capa_1-2" data-name="Capa 1">
    <g id="NutrienAgSolutions_Logo_ForLightBackgrounds_RGB" data-name="NutrienAgSolutions Logo ForLightBackgrounds RGB">
      <path id="SVGID" class="cls-1" d="M4.01,1.38c2.12,1.44,3.88,3.34,5.15,5.55.76,1.51,1.31,3.12,1.66,4.78,3.66.06,5.2,1.73,7.32,5.53.46.84.95,1.68,1.41,2.48h0c-.67-1.03-1.43-2.17-2.1-3.09-1.38-2.33-3.8-3.85-6.5-4.08-.72-.02-.9-.02-1.18-.02s-.63,0-1.73-.02c3.26,1.81,3.51,6.29,5.57,9.21,1.75,3.12,4.84,5.27,8.37,5.83.99.2,2,.31,3.01.34-1.07-1.02-1.96-2.21-2.65-3.51-.92-1.76-1.68-3.6-2.27-5.49-.92-2.9-1.83-6.46-2.27-8.35-.92-3.85-2.44-7.36-6.98-8.73-1.82-.37-3.67-.53-5.53-.48-.78.04-1.28.06-1.28.06"/>
      <g id="Group_140" data-name="Group 140">
        <path id="Path_168" data-name="Path 168" class="cls-2" d="M8.59,35.71c-.14-.13-.33-.2-.53-.18-.22,0-.43.04-.63.13-.04.02-.08.05-.1.08L.03,47.98c-.04.06-.04.15,0,.21.04.06.11.1.18.1h1.11c.07,0,.14-.04.18-.1l1.96-3.35h5.22l.48,3.26c.02.1.11.17.21.17h1.16c.06,0,.12-.02.17-.06.04-.04.06-.11.04-.17l-1.91-11.84c-.05-.18-.13-.34-.25-.48M8.43,43.52h-4.18l3.37-5.76.82,5.76Z"/>
        <path id="Path_169" data-name="Path 169" class="cls-2" d="M21.3,39.31c-.08-.02-.17-.03-.25-.02-.28,0-.56.09-.78.27-.12.1-.23.23-.32.36-.1-.11-.21-.21-.34-.29-.22-.15-.47-.26-.72-.34-.34-.1-.7-.15-1.05-.15-.77,0-1.52.2-2.19.57-.71.39-1.33.93-1.79,1.6-.52.76-.87,1.62-1.05,2.53-.36,1.13-.23,2.37.34,3.41.59.87,1.6,1.35,2.65,1.26.87.01,1.71-.25,2.42-.76-.11.51-.26,1.01-.44,1.49-.46,1.32-1.79,2.14-3.18,1.96-.6.04-1.2-.12-1.7-.46-.18-.11-.34-.26-.46-.44-.04-.05-.09-.09-.15-.1-.06-.02-.12,0-.17.04-.15.13-.29.25-.4.36-.11.11-.19.25-.23.4-.04.26.04.51.23.69.31.3.7.51,1.11.61.53.15,1.08.22,1.63.21,1.94.19,3.79-.88,4.61-2.65.29-.7.51-1.42.65-2.17l1.77-8.13c.01-.06,0-.12-.02-.17-.05-.04-.11-.07-.17-.08M19.59,41.33l-1.01,4.59c-.07.21-.2.39-.38.53-.28.21-.58.38-.9.5-.36.12-.74.18-1.11.18-.67.08-1.33-.25-1.66-.84-.33-.81-.37-1.71-.1-2.55.15-.94.59-1.81,1.24-2.5.58-.57,1.36-.87,2.17-.84.7,0,1.36.35,1.77.92"/>
        <path id="Path_170" data-name="Path 170" class="cls-2" d="M35.6,35.95c-.29-.18-.61-.32-.95-.4-.48-.12-.98-.18-1.47-.18-1.09-.03-2.16.28-3.05.9-.85.58-1.43,1.47-1.63,2.48-.13.52-.12,1.06.02,1.58.16.48.48.9.9,1.18.62.4,1.29.71,2,.92.5.14.98.36,1.41.65.25.18.42.44.48.74.07.37.05.75-.04,1.11-.13.68-.5,1.29-1.05,1.7-.62.43-1.37.64-2.12.61-.56,0-1.12-.1-1.64-.32-.43-.18-.8-.48-1.07-.86-.04-.05-.09-.08-.15-.08-.06,0-.12.02-.17.06-.31.22-.53.53-.65.88-.05.23.03.46.21.61.34.36.77.63,1.24.78.64.22,1.31.33,1.98.32,1.17.04,2.32-.32,3.26-1.01.9-.67,1.51-1.65,1.73-2.76.13-.55.12-1.12-.02-1.66-.15-.51-.46-.95-.88-1.26-.53-.4-1.13-.69-1.77-.86-.54-.15-1.05-.37-1.54-.65-.27-.16-.48-.41-.61-.69-.09-.3-.1-.62-.02-.92.11-.6.45-1.14.95-1.49.58-.38,1.26-.57,1.96-.54.88-.07,1.74.3,2.29.99.04.05.1.08.17.08h.21c.06,0,.11-.02.15-.06.23-.21.41-.47.53-.76.06-.24-.02-.49-.21-.65-.06-.17-.21-.27-.44-.42"/>
        <path id="Path_171" data-name="Path 171" class="cls-2" d="M41.77,39.15c-.8,0-1.59.19-2.29.57-.72.41-1.34.98-1.81,1.66-.51.74-.87,1.58-1.05,2.46-.34,1.14-.22,2.38.34,3.43.63.91,1.7,1.4,2.8,1.3,1.23.04,2.42-.43,3.3-1.28.94-.93,1.57-2.13,1.81-3.43.35-1.15.24-2.39-.32-3.45-.63-.89-1.69-1.37-2.78-1.26M39.92,47.28c-.68.08-1.34-.25-1.68-.84-.32-.82-.36-1.72-.1-2.57.17-.95.61-1.82,1.26-2.53.55-.59,1.33-.92,2.15-.9.67-.09,1.33.22,1.68.8.33.81.36,1.71.08,2.55-.17.97-.6,1.87-1.24,2.61-.56.59-1.34.91-2.15.88"/>
        <path id="Path_172" data-name="Path 172" class="cls-2" d="M49.13,34.81c-.07,0-.14,0-.21.02-.08.02-.15.08-.17.17l-2.44,11.26c-.11.4-.15.82-.13,1.24.03.27.17.52.38.69.24.16.52.23.8.21.28,0,.55-.04.82-.1.08-.01.14-.08.15-.17l.08-.38c.02-.06,0-.12-.04-.17-.04-.05-.09-.08-.15-.08-.16,0-.31-.04-.44-.13-.08-.06-.11-.16-.1-.25,0-.23.02-.45.06-.67l2.27-10.43c.1-.3.05-.62-.13-.88-.19-.22-.47-.34-.76-.32"/>
        <path id="Path_173" data-name="Path 173" class="cls-2" d="M58.28,39.29h-.06c-.1,0-.19.07-.21.17l-1.41,6.46c-.02.06-.08.23-.42.44-.34.21-.71.38-1.09.51-.41.14-.83.21-1.26.21-1.54,0-1.6-.74-1.63-.99-.03-.44,0-.88.1-1.3l.92-4.25c.1-.31.05-.65-.13-.92-.22-.23-.53-.35-.84-.32h-.08c-.1,0-.19.07-.21.17l-1.13,5.25c-.13.55-.2,1.12-.21,1.68-.04.59.2,1.16.65,1.54.55.4,1.22.59,1.89.54.64,0,1.28-.11,1.89-.32.4-.14.78-.32,1.14-.54l-.1.44c-.02.06,0,.12.04.17.04.05.1.08.17.08h1.07c.1,0,.19-.07.21-.17l1.64-7.59c.1-.32.05-.67-.13-.95-.21-.23-.51-.34-.82-.32"/>
        <path id="Path_174" data-name="Path 174" class="cls-2" d="M66.13,39.29h-2.61l.32-1.45c.1-.29.05-.61-.13-.86-.19-.22-.47-.34-.76-.32-.07,0-.14,0-.21.02-.08.02-.15.08-.17.17l-1.89,8.69c-.13.52-.18,1.06-.15,1.6.08.67.51,1.47,2.04,1.47.36,0,.71-.06,1.05-.17.34-.11.67-.26.97-.46.34-.23.51-.42.54-.59.04-.21-.06-.46-.34-.8-.04-.05-.09-.08-.15-.08-.06,0-.12.02-.17.06-.15.14-.31.27-.48.38-.34.24-.74.37-1.16.38-.25.03-.5-.07-.67-.25-.2-.39-.24-.85-.08-1.26l1.14-5.24h2.71c.1,0,.19-.07.21-.17l.18-.84c.02-.06,0-.12-.04-.17-.06-.08-.1-.1-.17-.1"/>
        <path id="Path_175" data-name="Path 175" class="cls-2" d="M69.81,36.18c-.28,0-.55.11-.76.29-.22.19-.37.44-.42.72-.07.26-.02.53.13.76.16.21.41.34.67.34.28,0,.55-.11.76-.29.22-.19.37-.44.42-.72.07-.26.02-.53-.13-.76-.15-.23-.4-.35-.67-.34"/>
        <path id="Path_176" data-name="Path 176" class="cls-2" d="M68.72,39.29h-.06c-.1,0-.19.07-.21.17l-1.48,6.8c-.11.41-.16.84-.13,1.26.02.27.16.52.38.67.23.14.5.22.78.21.28,0,.55-.04.82-.1.08-.01.14-.08.15-.17l.08-.38c.02-.06,0-.12-.04-.17-.04-.05-.09-.08-.15-.08-.29-.02-.4-.08-.44-.13-.07-.07-.11-.17-.1-.27,0-.23.03-.47.08-.69l1.28-5.89c.1-.3.05-.62-.13-.88-.2-.25-.52-.38-.84-.34"/>
        <path id="Path_177" data-name="Path 177" class="cls-2" d="M76.42,39.15c-.8,0-1.59.19-2.29.57-.72.41-1.34.98-1.81,1.66-.51.74-.87,1.58-1.05,2.46-.34,1.14-.22,2.38.34,3.43.63.91,1.7,1.4,2.8,1.3,1.23.04,2.42-.43,3.3-1.28.94-.93,1.57-2.13,1.81-3.43.35-1.15.24-2.39-.32-3.45-.64-.88-1.69-1.36-2.78-1.26M77.95,43.79c-.17.97-.6,1.87-1.24,2.61-.56.58-1.34.9-2.15.86-.68.08-1.34-.25-1.68-.84-.32-.82-.36-1.72-.1-2.57.17-.95.61-1.82,1.26-2.53.55-.59,1.33-.92,2.15-.9.67-.09,1.33.22,1.68.8.32.82.35,1.73.08,2.57"/>
        <path id="Path_178" data-name="Path 178" class="cls-2" d="M88.83,39.69c-.54-.39-1.2-.58-1.87-.54-.65,0-1.3.11-1.91.32-.42.14-.83.34-1.2.59,0-.17-.07-.33-.17-.46-.21-.23-.51-.34-.82-.32h-.08c-.1,0-.19.07-.21.17l-1.87,8.6c-.02.06,0,.12.04.17.04.05.1.08.17.08h1.07c.1,0,.19-.07.21-.17l1.39-6.33c.02-.14.08-.27.18-.36.35-.29.75-.52,1.18-.67.46-.18.94-.27,1.43-.27,1.54,0,1.6.74,1.63.99.03.44-.01.88-.13,1.3l-1.14,5.24c-.02.06,0,.12.04.17.04.05.1.08.17.08h1.07c.1,0,.19-.07.21-.17l1.14-5.24c.13-.55.2-1.12.21-1.68-.01-.58-.28-1.13-.74-1.49"/>
        <path id="Path_179" data-name="Path 179" class="cls-2" d="M97.68,39.97c-.27-.28-.61-.49-.99-.61-.45-.15-.93-.22-1.41-.21-.55,0-1.09.1-1.6.29-.48.19-.92.47-1.28.84-.35.37-.59.83-.69,1.33-.1.38-.1.78,0,1.16.11.34.32.64.61.86.47.31.99.53,1.54.65.45.1.88.25,1.28.46.18.1.32.27.4.46.06.21.07.44.02.65-.09.44-.35.83-.72,1.07-.43.28-.93.42-1.45.4-.8,0-1.57-.3-2.17-.84-.04-.04-.09-.06-.15-.06-.06,0-.11.02-.15.06-.17.18-.32.34-.4.44-.08.11-.14.23-.18.36-.05.24.05.49.25.63.33.23.7.39,1.09.48.5.13,1.02.19,1.54.18.87.01,1.72-.24,2.44-.74.68-.47,1.15-1.17,1.33-1.98.11-.4.11-.82,0-1.22-.09-.31-.28-.59-.53-.8-.24-.2-.51-.36-.8-.48-.29-.13-.59-.23-.9-.34-.42-.1-.82-.26-1.2-.46-.16-.09-.29-.23-.38-.4-.06-.16-.07-.34-.02-.5.08-.38.32-.71.65-.9.4-.23.85-.35,1.3-.34.77-.08,1.5.31,1.87.99.04.06.11.1.18.1h.17c.07,0,.13-.03.17-.08.1-.15.18-.27.27-.38.08-.12.14-.26.18-.4.03-.27-.08-.53-.29-.69"/>
        <path id="Path_180" data-name="Path 180" class="cls-2" d="M26.75,1.36l-5.07,19.46c.72,2.3,1.93,4.41,3.55,6.19l5.57-21.33.04-.17c.06-.25.09-.52.08-.78.02-2.02-1.81-3.32-4.19-3.37"/>
        <path id="Path_181" data-name="Path 181" class="cls-2" d="M7.81,13.38l-3.72,14.24h5.18l2.12-8.23c-.55-2.32-1.8-4.42-3.58-6.02"/>
        <path id="Path_182" data-name="Path 182" class="cls-2" d="M46.38,27.62h-3.6c-.65,0-1.03-.18-1.11-.53-.06-.52-.01-1.05.15-1.56-.73.68-1.57,1.24-2.48,1.66-1.25.54-2.6.8-3.95.76-1.38.15-2.77-.25-3.85-1.11-.72-.79-1.07-1.84-.99-2.9.03-.66.11-1.31.25-1.96.15-.72.29-1.41.48-2.08l2.84-10.88c.21-.05.43-.09.65-.1.4-.04.8-.06,1.2-.06.42,0,.83.04,1.24.13.38.07.73.23,1.03.46.29.25.5.58.59.95.1.53.06,1.08-.1,1.6l-2.01,7.7c-.15.61-.27,1.14-.36,1.63-.08.42-.09.84-.02,1.26.07.35.3.65.61.82.47.22.99.32,1.52.29.93.02,1.84-.19,2.67-.61.68-.26,1.2-.82,1.43-1.51l3.28-12.52c.21-.05.43-.09.65-.1.4-.04.8-.06,1.2-.06.41,0,.82.05,1.22.15.37.08.72.25,1.01.5.29.28.49.64.57,1.03.1.54.06,1.1-.1,1.63l-4.01,15.42Z"/>
        <path id="Path_183" data-name="Path 183" class="cls-2" d="M51.82,24.8c-.04-.55-.02-1.1.08-1.64.1-.58.22-1.16.38-1.73l4.73-18.2.61-.08.61-.06c.21-.02.42-.02.63-.02.42,0,.83.04,1.24.13.38.07.73.23,1.03.46.29.25.5.59.59.97.1.53.06,1.08-.1,1.6l-.72,2.76,5.53.02-1.03,4-5.53-.02-2.19,8.39c-.48,1.83.04,2.76,1.54,2.76.37,0,.74-.06,1.09-.17.36-.13.69-.25,1.01-.4.28-.12.55-.27.8-.44.17-.11.33-.23.48-.36.22.48.39.98.53,1.49.11.39.11.79,0,1.18-.12.39-.36.74-.67,1.01-.42.37-.9.67-1.41.9-.64.29-1.31.51-2,.65-.79.17-1.59.26-2.4.25-1.27.11-2.53-.22-3.58-.95-.74-.63-1.19-1.53-1.26-2.5"/>
        <path id="Path_184" data-name="Path 184" class="cls-2" d="M74.59,10.95c.26-.28.55-.54.86-.78.36-.3.76-.56,1.18-.78.44-.24.91-.43,1.39-.59.82-.25,1.69-.3,2.53-.15.32.05.62.15.9.29.25.12.45.33.57.59.12.29.14.62.04.92-.22.7-.54,1.35-.95,1.96-.42.66-.88,1.3-1.37,1.91-.32-.34-.7-.63-1.11-.84-.47-.21-.98-.31-1.49-.29-.8,0-1.58.24-2.23.69-.61.39-1.07.99-1.26,1.68l-3.16,12.08-5.36-.02,4.84-18.56.48-.08c.17-.02.36-.04.57-.06.21-.02.46-.02.76-.02.72-.03,1.44.14,2.06.5.52.33.81.92.76,1.54"/>
        <path id="Path_185" data-name="Path 185" class="cls-2" d="M91.96,2.89c-.2.83-.7,1.55-1.39,2.04-.64.5-1.42.77-2.23.78-.71.04-1.4-.25-1.85-.8-.44-.59-.55-1.35-.29-2.04.44-1.65,1.91-2.82,3.61-2.86.7-.03,1.38.26,1.83.8.45.6.57,1.38.32,2.08M85.39,27.94c-.24.06-.49.11-.74.13-.38.02-.78.04-1.2.04-.83.06-1.66-.17-2.34-.65-.53-.44-.63-1.3-.29-2.61l4.1-15.72c.21-.05.43-.09.65-.1.4-.04.8-.06,1.2-.06.42,0,.83.04,1.24.13.38.07.73.23,1.03.46.29.25.5.58.59.95.1.53.06,1.08-.1,1.6l-4.14,15.84Z"/>
        <path id="Path_186" data-name="Path 186" class="cls-2" d="M103.74,16.45c.34-.99.36-2.05.06-3.05-.27-.78-1.05-1.18-2.31-1.18-1.08-.02-2.12.38-2.9,1.11-.88.84-1.49,1.93-1.77,3.11h6.92ZM99.89,24.39c.6.01,1.2-.06,1.79-.21.51-.13,1-.31,1.47-.53.42-.2.82-.43,1.2-.69.36-.25.67-.48.97-.69.25.48.45.99.59,1.52.18.48.22,1.01.13,1.52-.24.68-.74,1.24-1.39,1.56-.82.49-1.7.85-2.63,1.07-1.2.31-2.44.46-3.68.44-1.2,0-2.38-.16-3.54-.48-1.06-.28-2.03-.86-2.78-1.66-.78-.89-1.29-1.98-1.45-3.16-.2-1.68-.05-3.39.44-5.01.68-2.88,2.34-5.43,4.7-7.22,1.01-.75,2.14-1.34,3.35-1.73,1.12-.35,2.28-.53,3.45-.54,1.23-.05,2.45.19,3.58.69.84.4,1.55,1.05,2.02,1.85.45.81.7,1.72.72,2.65.01,1.06-.11,2.11-.38,3.13-.04.15-.08.34-.15.54s-.13.44-.18.67-.15.46-.21.69-.15.4-.18.53l-11.59-.02c-.29,1.21-.15,2.48.4,3.6.76,1.09,2.07,1.66,3.39,1.47"/>
        <path id="Path_187" data-name="Path 187" class="cls-2" d="M114.66,27.68l-5.41-.03,4.82-18.45.48-.08c.17-.02.36-.04.57-.06s.46-.02.76-.02c.72-.03,1.44.13,2.08.46.56.32.86.96.76,1.6.73-.69,1.57-1.25,2.48-1.66,1.24-.54,2.59-.79,3.95-.75,1.38-.15,2.77.25,3.85,1.11.72.79,1.07,1.84.99,2.9-.03.66-.11,1.31-.25,1.96-.15.72-.32,1.41-.48,2.08l-2.89,10.92h-5.36l2.78-10.71c.15-.57.27-1.11.36-1.6.09-.42.1-.86.02-1.28-.07-.35-.3-.65-.61-.82-.47-.22-.99-.32-1.51-.29-.92-.01-1.84.19-2.66.61-.68.26-1.21.82-1.43,1.52l-3.28,12.6Z"/>
        <path id="Path_188" data-name="Path 188" class="cls-2" d="M102.75,40.03c.02.84-.63,1.53-1.47,1.56-.84.02-1.53-.63-1.56-1.47-.02-.84.63-1.53,1.47-1.56.01,0,.03,0,.04,0,.82,0,1.5.65,1.52,1.47ZM100.1,40.03c-.02.63.48,1.16,1.11,1.18.02,0,.03,0,.05,0,.62,0,1.12-.5,1.12-1.12,0-.01,0-.02,0-.04,0-.63-.5-1.14-1.13-1.15-.63,0-1.14.5-1.15,1.13h0ZM101.03,40.81h-.34v-1.47c.19-.03.38-.04.57-.04.17-.01.35.02.5.1.09.08.15.19.15.32,0,.17-.13.31-.29.34v.02c.15.06.25.2.27.36.01.13.05.26.1.38h-.38c-.05-.12-.09-.24-.13-.36-.02-.17-.13-.23-.29-.23h-.17v.59h0ZM101.03,39.97h.17c.18,0,.34-.06.34-.21s-.1-.23-.32-.23c-.06,0-.12,0-.18.02v.42h0Z"/>
      </g>
    </g>
  </g>
</svg>